<svg width="49" height="49" viewBox="0 0 49 49" fill="none" xmlns="http://www.w3.org/2000/svg">
<path d="M21.4671 3.30157C23.2936 2.04436 25.7064 2.04436 27.5329 3.30157L35.7782 8.97683L43.7237 15.0648C45.4838 16.4135 46.2294 18.7082 45.5981 20.8338L42.7486 30.4293L39.4138 39.8672C38.6751 41.9579 36.7231 43.3761 34.5064 43.4326L24.5 43.6877L14.4936 43.4326C12.2769 43.3761 10.3249 41.9579 9.58618 39.8672L6.25144 30.4293L3.40187 20.8338C2.77062 18.7082 3.51622 16.4135 5.27632 15.0648L13.2218 8.97684L21.4671 3.30157Z" stroke="#948254" stroke-width="2"/>
<path d="M14.9597 24.631H16.852V22.6802H17.7884C19.4856 22.6802 20.7243 21.8316 20.7243 20.2222C20.7243 18.6908 19.6124 17.8032 17.8859 17.8032H14.9597V24.631ZM16.852 21.1976V19.3931H17.7396C18.4224 19.3931 18.8321 19.7052 18.8321 20.2905C18.8321 20.8464 18.4224 21.1976 17.7494 21.1976H16.852ZM21.5227 24.631H24.1173C26.5753 24.631 28.0091 23.1679 28.0091 21.1976C28.0091 19.2078 26.5948 17.8032 24.1563 17.8032H21.5227V24.631ZM23.415 22.9533V19.4614H24.1856C25.317 19.4614 26.0681 20.1149 26.0681 21.2073C26.0681 22.329 25.317 22.9533 24.1856 22.9533H23.415ZM28.9811 24.631H30.8734V22.1925H34.1019V20.6221H30.8734V19.4614H34.4433V17.8032H28.9811V24.631Z" fill="#948254"/>
<path d="M24.5 28.2958V33.6099M24.5 33.6099L27.3296 30.7803M24.5 33.6099L21.6704 30.7803" stroke="#948254" stroke-width="2.07042" stroke-linecap="round" stroke-linejoin="round"/>
</svg>
