<svg width="245" height="74" viewBox="0 0 245 74" fill="none" xmlns="http://www.w3.org/2000/svg">
<path d="M19.3265 10.1875H225.673C226.144 15.0156 229.984 18.8562 234.812 19.3265V54.1735C229.984 54.6438 226.144 58.4844 225.673 63.3125L19.3265 63.3125C18.8562 58.4844 15.0156 54.6438 10.1875 54.1735V19.3265C15.0156 18.8562 18.8562 15.0156 19.3265 10.1875Z" stroke="#948254" stroke-width="2" stroke-linecap="round" stroke-linejoin="round"/>
<path d="M9.93131 71.1748C12.9817 70.3575 14.7645 67.1194 13.9132 63.9425C13.0619 60.7655 9.89902 58.8527 6.84862 59.6701C5.31998 60.0797 4.10968 61.0972 3.38968 62.4102C3.0227 63.1886 2.60664 65.3793 4.54191 66.7104C6.47717 68.0415 7.96894 66.3059 8.38997 65.4224M9.93131 2.09778C12.9817 2.91513 14.7645 6.15315 13.9132 9.3301C13.0619 12.5071 9.89902 14.4199 6.84862 13.6025C5.31998 13.1929 4.10968 12.1754 3.38968 10.8623C3.0227 10.084 2.60664 7.89324 4.54191 6.56218C6.47717 5.23112 7.96894 6.96667 8.38997 7.85016" stroke="#948254" stroke-width="2" stroke-linecap="round" stroke-linejoin="round"/>
<path d="M235.494 71.1748C232.444 70.3575 230.661 67.1194 231.513 63.9425C232.364 60.7655 235.527 58.8527 238.577 59.6701C240.106 60.0797 241.316 61.0972 242.036 62.4102C242.403 63.1886 242.819 65.3793 240.884 66.7104C238.949 68.0415 237.457 66.3059 237.036 65.4224M235.494 2.09778C232.444 2.91513 230.661 6.15315 231.513 9.3301C232.364 12.5071 235.527 14.4199 238.577 13.6025C240.106 13.1929 241.316 12.1754 242.036 10.8623C242.403 10.084 242.819 7.89324 240.884 6.56218C238.949 5.23112 237.457 6.96667 237.036 7.85016" stroke="#948254" stroke-width="2" stroke-linecap="round" stroke-linejoin="round"/>
</svg>
