<svg width="14" height="72" viewBox="0 0 14 72" fill="none" xmlns="http://www.w3.org/2000/svg">
<path d="M7.93131 70.1748C10.9817 69.3575 12.7645 66.1194 11.9132 62.9425C11.0619 59.7655 7.89902 57.8527 4.84862 58.6701C3.31998 59.0797 2.10968 60.0972 1.38968 61.4102C1.0227 62.1886 0.606642 64.3793 2.54191 65.7104C4.47717 67.0415 5.96894 65.3059 6.38997 64.4224M7.93131 1.09778C10.9817 1.91513 12.7645 5.15315 11.9132 8.3301C11.0619 11.5071 7.89902 13.4199 4.84862 12.6025C3.31998 12.1929 2.10968 11.1754 1.38968 9.86234C1.0227 9.08401 0.606642 6.89324 2.54191 5.56218C4.47717 4.23112 5.96894 5.96667 6.38997 6.85016" stroke="#948254" stroke-width="2" stroke-linecap="round" stroke-linejoin="round"/>
</svg>
