<svg width="18" height="20" viewBox="0 0 18 20" fill="none" xmlns="http://www.w3.org/2000/svg">
<path fill-rule="evenodd" clip-rule="evenodd" d="M10.1636 0.266267C10.5151 -0.0887556 11.0849 -0.0887556 11.4364 0.266267L15.0364 3.90263C15.3879 4.25766 15.3879 4.83323 15.0364 5.18826L5.1364 15.1883C4.96761 15.3587 4.73869 15.4545 4.5 15.4545H0.9C0.402944 15.4545 0 15.0475 0 14.5455V10.9091C0 10.668 0.0948204 10.4368 0.263603 10.2663L10.1636 0.266267ZM1.8 11.2856V13.6364H4.12721L13.1272 4.54544L10.8 2.19473L1.8 11.2856Z" fill="#40454A"/>
<path fill-rule="evenodd" clip-rule="evenodd" d="M0 19.0909C0 18.5888 0.402944 18.1818 0.9 18.1818H17.1C17.5971 18.1818 18 18.5888 18 19.0909C18 19.593 17.5971 20 17.1 20H0.9C0.402944 20 0 19.593 0 19.0909Z" fill="#40454A"/>
</svg>
