<svg width="20" height="20" viewBox="0 0 20 20" fill="none" xmlns="http://www.w3.org/2000/svg">
<path d="M16.5678 20C16.4802 20 16.3925 20 16.3048 20C13.4997 19.6522 10.6946 18.6956 8.32774 17.2174C6.13623 15.8261 4.2077 13.913 2.80513 11.7391C1.22724 9.3913 0.262981 6.60866 0 3.82606C0 3.1304 0.175318 2.43474 0.61362 1.913C1.05192 1.39126 1.66555 1.04346 2.36683 0.9565C2.45449 0.9565 2.54215 0.9565 2.62981 0.9565H5.25962C6.57453 0.9565 7.71412 1.913 7.88944 3.21735C7.9771 3.99996 8.15241 4.7826 8.41539 5.47825C8.76603 6.43477 8.50305 7.47826 7.80177 8.26087L7.18815 8.86952C8.24008 10.4347 9.55499 11.8261 11.2205 12.8696L11.8342 12.2608C12.5354 11.5652 13.675 11.3043 14.6393 11.6521C15.3406 11.913 16.1295 12.087 16.9185 12.1739C18.2334 12.3478 19.1976 13.4783 19.1976 14.7826V17.3913C19.1976 18.087 18.9346 18.7826 18.4087 19.2174C17.8827 19.6522 17.2691 20 16.5678 20ZM5.25962 2.69563H2.62981C2.36683 2.69563 2.10385 2.86957 1.92853 3.04348C1.84087 3.21739 1.75321 3.39126 1.75321 3.65213C2.01619 6.17387 2.89279 8.60866 4.29535 10.7826C5.61026 12.7826 7.27581 14.5217 9.292 15.7391C11.4835 17.1304 13.938 18 16.4802 18.2609C16.8308 18.2609 17.0061 18.1739 17.1814 18C17.3568 17.826 17.4444 17.6522 17.4444 17.3913V14.7826C17.4444 14.3478 17.0938 14 16.6555 13.913C15.7789 13.8261 14.9023 13.5652 14.0257 13.2173C13.675 13.1304 13.3244 13.1304 13.0614 13.3913L11.9218 14.5217C11.6588 14.7826 11.2205 14.8695 10.8699 14.6956C8.50305 13.3913 6.57453 11.4783 5.25962 9.13043C5.17196 8.78261 5.25963 8.34782 5.52261 8.08695L6.66218 6.95652C6.8375 6.78261 6.92517 6.34783 6.83751 6.08696C6.48687 5.21739 6.31155 4.34783 6.13623 3.47826C6.13623 3.04348 5.69793 2.69563 5.25962 2.69563ZM15.6912 8.78259C15.2529 8.78259 14.9023 8.52173 14.8146 8.08695C14.5516 6.69564 13.412 5.65215 12.0095 5.30433C11.5712 5.21737 11.2205 4.78258 11.3082 4.26084C11.3958 3.82606 11.8341 3.47824 12.3601 3.5652C14.464 3.99998 16.1295 5.56521 16.4802 7.65216C16.5678 8.08695 16.3048 8.6087 15.7789 8.69565C15.7789 8.69565 15.7789 8.78259 15.6912 8.78259ZM19.1976 8.69565C18.7593 8.69565 18.4087 8.34781 18.321 7.91302C17.9704 4.69563 15.4282 2.17391 12.0971 1.73913C11.6588 1.65217 11.3082 1.21736 11.3082 0.782577C11.3082 0.347794 11.8342 0 12.2725 0C16.3925 0.434783 19.5483 3.56521 19.9866 7.65216C20.0742 8.08695 19.7236 8.52171 19.1976 8.60866C19.2853 8.69562 19.1976 8.69565 19.1976 8.69565Z" fill="#40454A"/>
</svg>
