<svg width="62" height="45" viewBox="0 0 62 45" fill="none" xmlns="http://www.w3.org/2000/svg">
<path d="M61.2962 9.96432C61.2962 9.96432 60.6937 5.6886 58.8366 3.80371C56.4855 1.33352 53.8481 1.3236 52.6429 1.17479C43.9896 0.549805 31.0097 0.549805 31.0097 0.549805H30.98C30.98 0.549805 18.0001 0.549805 9.3468 1.17479C8.14166 1.3236 5.50418 1.33352 3.15317 3.80371C1.29607 5.6886 0.693503 9.96432 0.693503 9.96432C0.693503 9.96432 0.0810547 14.9841 0.0810547 20.0137V24.726C0.0810547 29.7457 0.703381 34.7655 0.703381 34.7655C0.703381 34.7655 1.30595 39.0412 3.16305 40.9261C5.51406 43.3962 8.60594 43.3169 9.97901 43.5748C14.9181 44.051 30.9998 44.1998 30.9998 44.1998C30.9998 44.1998 43.9896 44.18 52.6429 43.555C53.8481 43.4062 56.4855 43.3962 58.8366 40.9261C60.6937 39.0412 61.2962 34.7655 61.2962 34.7655C61.2962 34.7655 61.9186 29.7457 61.9186 24.726V20.0137C61.9186 14.9841 61.2962 9.96432 61.2962 9.96432Z" fill="#FC0D1C"/>
<path d="M24.6187 12.9805V30.4206L41.3227 21.7303L24.6187 12.9805Z" fill="#EAEAEA"/>
</svg>
