<svg width="21" height="21" viewBox="0 0 21 21" fill="none" xmlns="http://www.w3.org/2000/svg">
<path d="M2.69545 0H18.3048C19.7871 0 21 1.09749 21 2.69521V18.3048C21 19.9025 19.7871 21 18.3048 21H2.69545C1.21264 21 0 19.9025 0 18.3048V2.69521C0 1.09749 1.21264 0 2.69545 0ZM15.2977 2.33319C14.7777 2.33319 14.3527 2.75839 14.3527 3.27867V5.54157C14.3527 6.06164 14.7777 6.48705 15.2977 6.48705H17.6713C18.1913 6.48705 18.6168 6.06164 18.6168 5.54157V3.27867C18.6168 2.75839 18.1913 2.33319 17.6713 2.33319H15.2977ZM18.6267 8.88083H16.7784C16.9533 9.45178 17.0479 10.0566 17.0479 10.6823C17.0479 14.1753 14.125 17.0068 10.5201 17.0068C6.91533 17.0068 3.99283 14.1753 3.99283 10.6823C3.99283 10.0562 4.08727 9.45156 4.26236 8.88083H2.33364V17.7515C2.33364 18.2106 2.70925 18.5864 3.16852 18.5864H17.7922C18.2515 18.5864 18.6271 18.2108 18.6271 17.7515V8.88083H18.6267ZM10.5198 6.36781C8.19072 6.36781 6.30233 8.19732 6.30233 10.4544C6.30233 12.7115 8.19072 14.541 10.5198 14.541C12.8492 14.541 14.7378 12.7115 14.7378 10.4544C14.7378 8.19732 12.8494 6.36781 10.5198 6.36781Z" fill="white"/>
</svg>
