<svg width="140" height="52" viewBox="0 0 140 52" fill="none" xmlns="http://www.w3.org/2000/svg">
<path fill-rule="evenodd" clip-rule="evenodd" d="M14.8094 17.3245L37.5206 0.365193C37.7411 0.165304 38.0202 0.0402589 38.3174 0.00819309C38.6145 -0.0238727 38.9142 0.0386997 39.173 0.186854C39.4318 0.335008 39.6363 0.561041 39.7567 0.832137C39.8771 1.10323 39.9073 1.40529 39.8428 1.69452L36.3772 29.6662C36.2501 32.281 34.4656 32.2136 33.7181 31.1947C32.6102 28.6033 30.2466 25.9242 27.0055 23.8043C27.4919 23.8319 27.9774 23.7383 28.4178 23.5319C33.1066 20.9816 31.2039 17.0902 31.8804 12.6396C28.3351 15.4417 23.9772 15.7609 24.0954 21.0577C24.1339 21.5259 24.2881 21.9774 24.5445 22.3724L24.5681 22.4105C21.1172 20.7034 17.6073 20.0241 14.8005 20.3609C13.5272 20.2379 12.5876 18.7416 14.8094 17.3245Z" fill="white"/>
<path fill-rule="evenodd" clip-rule="evenodd" d="M9.44997 24.7617C3.26622 29.0367 -1.07097 35.4374 0.231959 36.9658C1.81557 38.8134 2.51578 36.2719 4.67847 38.7227C6.84115 41.1735 4.45393 47.6562 9.60655 50.9356C15.0517 53.7202 19.5159 48.4321 22.7452 49.0587C25.9744 49.6853 24.1042 51.5593 26.5092 51.9867C28.4887 52.344 31.913 45.4221 32.56 37.979C33.0386 32.4596 30.3264 28.5565 25.8858 25.6811C26.3053 26.665 26.0719 28.659 23.1381 33.1623C19.0432 39.4518 15.8376 41.9465 15.093 41.5073C14.3485 41.068 14.9158 37.0888 18.3637 30.4304C20.8336 25.6606 22.4556 24.463 23.5281 24.3313C18.8009 21.9683 14.0324 21.5906 9.44997 24.7617Z" fill="white"/>
<path d="M134.841 41.4663C132.34 41.4663 131.089 40.3731 131.089 38.1868C131.089 37.3933 131.308 36.1372 131.748 34.3804C132.188 32.6235 132.407 31.4523 132.407 30.7759C132.407 29.7833 132.055 29.2856 131.346 29.2856C130.637 29.2856 130.011 29.8419 129.455 30.9458C129.289 31.2731 129.155 31.6153 129.054 31.9677L127.065 41.2906H122.843L124.988 31.2591C125.048 31.0217 125.078 30.7777 125.077 30.5329C125.077 29.6867 124.781 29.2592 124.211 29.2592C123.918 29.2633 123.63 29.3382 123.373 29.4775C123.115 29.6168 122.896 29.8163 122.734 30.0586C122.309 30.6324 121.995 31.2798 121.809 31.9677L119.821 41.2906H115.596L117.581 32.0145C116.789 32.3144 115.967 32.5322 115.129 32.6645C114.899 35.3135 114.129 37.4314 112.822 39.0184C111.514 40.6054 109.948 41.3999 108.124 41.4019C105.871 41.4019 104.419 40.58 103.769 38.9364C103.646 38.6265 103.557 38.3046 103.503 37.976C101.583 40.299 99.3413 41.4604 96.7788 41.4604C95.3862 41.4604 94.2753 41.1032 93.4461 40.3887C92.975 39.9672 92.6339 39.422 92.4623 38.8164C91.2233 40.5732 89.5708 41.4516 87.5046 41.4516C86.734 41.4521 85.993 41.1573 85.4365 40.6289C84.9594 40.1572 84.6619 39.5365 84.5945 38.872C83.3614 40.5957 81.7227 41.4575 79.6782 41.4575C78.9075 41.4579 78.1665 41.1631 77.61 40.6347C77.1639 40.1985 76.8761 39.628 76.7916 39.0126C75.7142 40.6445 74.3739 41.4604 72.7706 41.4604C71.5494 41.4604 70.6276 41.1744 70.0052 40.6025C69.3847 40.0169 69.0775 39.2117 69.0775 38.1576C69.0855 37.6468 69.1429 37.1379 69.2488 36.6379L69.4941 35.5048C69.5648 35.1537 69.6024 34.7969 69.6063 34.4389C69.6063 33.5049 69.2547 33.0335 68.5516 33.0335C67.9932 33.0335 67.2752 33.3907 66.3859 34.1139L64.8555 41.2906H60.6129L64.8703 21.5262L69.2045 20.9406L67.0034 31.18L72.6583 26.7674H75.5714L69.7068 30.8169C70.0242 30.7347 70.3508 30.6924 70.6788 30.691C71.7582 30.691 72.5648 31.0268 73.0985 31.6983C73.6391 32.3808 73.9223 33.229 73.8992 34.0964C73.8953 34.4669 73.8577 34.8364 73.7869 35.2002L73.456 36.6496C73.3758 36.9552 73.3282 37.2682 73.3142 37.5837C73.3142 38.304 73.7101 38.6641 74.496 38.6641C75.2819 38.6641 75.9378 38.1546 76.446 37.1328C76.5966 36.8165 76.7414 36.4739 76.9157 36.0962L78.6884 27.9357H77.7164L77.9616 26.7645H78.9189L79.8052 22.7502L84.1454 22.1646L83.1379 26.7616H84.9106L84.6801 27.9328H82.9074L81.0313 36.6467C80.9539 36.9869 80.9143 37.3345 80.9132 37.6832C80.9132 38.3362 81.3091 38.6612 82.0949 38.6612C82.3969 38.6526 82.6939 38.5829 82.9677 38.4566C83.2415 38.3302 83.4864 38.1497 83.6874 37.9263C84.1906 37.4153 84.5537 36.7853 84.7422 36.0962L86.7305 26.7733H90.9643L88.8666 36.6408C88.7893 36.9811 88.7496 37.3286 88.7485 37.6774C88.7485 38.3303 89.1444 38.6553 89.9303 38.6553C90.2322 38.6467 90.5292 38.5771 90.803 38.4507C91.0768 38.3243 91.3217 38.1439 91.5227 37.9204C91.7874 37.6553 92.0132 37.3547 92.1934 37.0274C92.1934 36.9717 92.1934 36.9131 92.1934 36.8546C92.2011 34.5988 92.7877 32.382 93.8981 30.4129C94.6706 28.9334 95.9179 27.7507 97.4435 27.0515C98.1891 26.6953 99.006 26.5101 99.8337 26.5098C102.184 26.5098 103.358 27.3882 103.358 29.145C103.358 29.8858 103.208 30.4246 102.9 30.773C102.778 30.93 102.622 31.058 102.444 31.1476C102.266 31.2373 102.069 31.2864 101.869 31.2913C101.477 31.2873 101.094 31.1681 100.77 30.9487C100.993 30.4029 101.114 29.8216 101.128 29.2329C101.128 28.4384 100.849 28.0412 100.292 28.0412C99.7303 28.0412 99.1424 28.5389 98.519 29.5432C97.5564 31.1683 96.9335 32.9687 96.6872 34.8372C96.587 35.5285 96.5395 36.2264 96.5454 36.9249C96.5454 38.3245 97.216 39.0214 98.5633 39.0214C99.5633 39.0556 100.551 38.7958 101.403 38.2747C102.15 37.7708 102.834 37.181 103.441 36.5179C103.463 35.9673 103.521 35.4186 103.613 34.8752C103.74 34.117 103.928 33.37 104.174 32.6411C104.667 31.0561 105.536 29.6112 106.709 28.4277C107.328 27.8034 108.068 27.3102 108.886 26.978C109.703 26.6458 110.579 26.4816 111.463 26.4951C113.97 26.4951 115.225 28.0421 115.227 31.1361V31.1654C115.388 31.1892 115.551 31.1989 115.714 31.1947C116.414 31.1546 117.1 30.9859 117.738 30.6969L117.874 30.6413L118.707 26.7674H122.929L122.616 28.2725C123.051 27.7511 123.598 27.3328 124.217 27.0481C124.836 26.7633 125.511 26.6194 126.194 26.6269C127.923 26.6269 128.927 27.4585 129.204 29.1216C130.28 27.4741 131.64 26.6523 133.284 26.6562C134.124 26.6262 134.947 26.8976 135.601 27.4204C136.221 27.9299 136.534 28.6795 136.534 29.6633C136.51 30.8136 136.346 31.9569 136.047 33.0686L135.358 35.9059C135.226 36.3964 135.15 36.9004 135.134 37.408C135.134 38.2415 135.49 38.6583 136.203 38.6583C136.488 38.6756 136.772 38.6284 137.035 38.5203C137.299 38.4123 137.533 38.2461 137.722 38.0346C138.169 37.4443 138.522 36.7896 138.768 36.0933H140C139.271 38.2288 138.354 39.729 137.249 40.5937C136.572 41.1491 135.724 41.459 134.844 41.4721L134.841 41.4663ZM48.4138 40.295C49.0047 37.0781 50.1796 33.5439 51.9385 29.6926C53.2971 29.8197 54.6239 30.1751 55.862 30.7437L53.6137 41.2847H57.8445L62.4387 19.9099C61.7082 19.6 60.9161 19.4588 60.1224 19.4971C58.4699 19.4971 56.7543 20.3072 54.9757 21.9274C53.029 23.7498 51.3315 25.817 49.9265 28.0763C49.2972 28.0177 48.7831 27.9885 48.3931 27.9885C46.6972 27.9885 45.2702 28.3388 44.112 29.0396C42.9539 29.7404 42.3866 30.5915 42.4103 31.5929C42.3988 31.8201 42.4384 32.047 42.5263 32.2571C42.6142 32.4673 42.7481 32.6555 42.9184 32.808C43.3382 33.1327 43.8646 33.2913 44.3957 33.2531C44.7539 33.2542 45.1049 33.1525 45.4061 32.9603C45.5433 32.8901 45.6596 32.7857 45.7436 32.6573C45.8275 32.5289 45.8762 32.381 45.8847 32.2283C45.8921 31.9825 45.8468 31.738 45.7518 31.5109C45.6691 31.3176 45.5804 31.2181 45.4977 31.2181C45.6033 30.9629 45.7637 30.7335 45.9678 30.5459C46.1719 30.3583 46.4148 30.217 46.6795 30.1318C47.4068 29.8816 48.1674 29.7395 48.9367 29.7101C48.2956 30.8199 47.7106 31.9384 47.164 33.0774C45.4682 36.7101 44.6192 39.5289 44.6173 41.5336C44.6173 42.8571 45.1107 43.7677 46.0945 44.2567C46.5584 44.4939 47.3708 44.6139 48.529 44.6139C48.2267 44.1154 48.0864 43.5369 48.1272 42.9567C48.147 42.0713 48.2459 41.1895 48.4226 40.3214L48.4138 40.295ZM52.5501 28.4481C54.3937 24.7568 56.1585 22.4613 57.8445 21.5614L56.1398 29.4671C54.982 29.0199 53.784 28.6826 52.5619 28.4599L52.5501 28.4481ZM91.9925 22.8848C91.998 22.5787 91.94 22.2746 91.8221 21.9916C91.7042 21.7085 91.5289 21.4525 91.3071 21.2393C91.0894 21.0195 90.8289 20.846 90.5414 20.7292C90.2539 20.6124 89.9455 20.5548 89.6348 20.56C89.3275 20.5531 89.0222 20.6108 88.739 20.7294C88.4558 20.848 88.2013 21.0248 87.9921 21.2481C87.7742 21.4666 87.6032 21.7267 87.4895 22.0125C87.3757 22.2983 87.3216 22.6041 87.3303 22.9112C87.3295 23.212 87.3888 23.5099 87.5046 23.7879C87.6205 24.0659 87.7907 24.3184 88.0055 24.531C88.2202 24.7435 88.4752 24.9119 88.7559 25.0264C89.0365 25.1408 89.3372 25.1992 89.6407 25.198C89.9477 25.2023 90.2524 25.1462 90.5374 25.0332C90.8224 24.9201 91.082 24.7522 91.3011 24.5392C91.526 24.3315 91.704 24.0792 91.8237 23.7987C91.9433 23.5181 92.0018 23.2157 91.9954 22.9112L91.9925 22.8848ZM112.689 32.7319C112.16 32.6001 111.897 32.1697 111.897 31.4436C111.872 31.129 111.948 30.8148 112.113 30.5449C112.277 30.2749 112.523 30.0629 112.816 29.9385C112.817 29.4878 112.716 29.0426 112.52 28.6355C112.364 28.3779 112.056 28.252 111.596 28.252C110.709 28.252 109.841 29.2299 109.019 31.18C108.198 33.1301 107.787 34.8899 107.787 36.4095C107.787 37.3436 107.87 37.9409 108.041 38.1927C108.17 38.403 108.361 38.5687 108.588 38.6671C108.838 38.7412 109.098 38.7739 109.359 38.7637C110.03 38.7637 110.688 38.1781 111.347 37.0069C112.06 35.6847 112.516 34.2415 112.692 32.7524L112.689 32.7319Z" fill="white"/>
</svg>
