<svg width="15" height="26" viewBox="0 0 15 26" fill="none" xmlns="http://www.w3.org/2000/svg">
<path d="M10.2718 6.03552C9.99814 6.61825 9.02849 7.76299 7.77056 6.88504C6.51264 6.0071 6.89393 4.5744 7.02162 4.04874C7.14931 3.52309 7.77056 2.48507 9.125 2.1168C11.1078 1.57769 13.3086 2.96391 13.8619 5.05937C14.4152 7.15483 13.2564 9.29058 11.2737 9.82969L1 13L11.2736 16.1703C13.2564 16.7094 14.4151 18.8452 13.8618 20.9406C13.3085 23.0361 11.1077 24.4223 9.12494 23.8832C7.77051 23.5149 7.14925 22.4769 7.02156 21.9513C6.89387 21.4256 6.51258 19.9929 7.7705 19.115C9.02843 18.237 9.99808 19.3817 10.2717 19.9645" stroke="white" stroke-width="2" stroke-linecap="round" stroke-linejoin="round"/>
</svg>
