<svg width="150" height="129" viewBox="0 0 150 129" fill="none" xmlns="http://www.w3.org/2000/svg">
<path d="M40.1412 67.4831C38.6291 69.8514 36.5124 71.7724 34.01 73.0475C31.0309 74.5678 27.7626 75.4355 24.4224 75.5928L22.364 87.1513C21.5641 91.5588 19.392 93.7808 15.8475 93.8176C13.9128 93.8221 12.0257 93.2169 10.4538 92.0877C8.66002 90.7423 7.28871 88.9107 6.5021 86.8097C5.43771 84.0271 4.93271 81.0615 5.01608 78.083C4.8536 72.4113 5.924 66.7719 8.15324 61.5551C9.91907 57.4182 12.8486 53.8847 16.585 51.3849C20.0631 49.1458 24.1179 47.9702 28.253 48.0022C30.8884 47.9257 33.5049 48.4691 35.8923 49.5889C37.8573 50.5293 39.5059 52.0226 40.6365 53.8861C41.7157 55.7257 42.275 57.8242 42.2547 59.9574C42.2823 62.6165 41.549 65.2279 40.1412 67.4831ZM35.1107 60.4312C35.146 59.4735 34.9789 58.5192 34.6204 57.6305C34.2619 56.7419 33.7201 55.9391 33.0303 55.2745C31.6434 53.9449 29.4932 53.2801 26.5799 53.2801C23.4295 53.2309 20.3706 54.3405 17.983 56.3984C15.3646 58.7332 13.4122 61.7218 12.3251 65.059C10.9376 69.1252 10.2635 73.4011 10.3327 77.6973C10.3068 79.4747 10.5065 81.2482 10.9271 82.9753C11.2114 84.25 11.7303 85.4606 12.4572 86.5453C13.081 87.39 13.679 87.8124 14.2514 87.8124C15.0513 87.8124 15.6567 86.7106 16.0677 84.5068L17.6528 75.4385L16.0236 75.1961C15.6683 75.1783 15.3201 75.0902 14.9989 74.937C14.6778 74.7839 14.39 74.5686 14.1524 74.3036C13.8485 73.8076 13.6991 73.2322 13.7231 72.6508C13.7099 72.3447 13.7576 72.039 13.8635 71.7515C13.9693 71.464 14.1311 71.2004 14.3395 70.976C14.5565 70.7629 14.8152 70.597 15.0994 70.4889C15.3835 70.3808 15.687 70.3328 15.9906 70.3479C16.2286 70.3268 16.4681 70.3268 16.7061 70.3479C17.4399 70.4728 18.0307 70.5536 18.4783 70.5903C18.8966 68.0928 19.4874 64.7505 20.2505 60.5634C20.2968 60.1052 20.4381 59.6616 20.6656 59.2612C20.8931 58.8609 21.2016 58.5125 21.5714 58.2385C22.2894 57.7661 23.1342 57.524 23.9931 57.5443C24.7986 57.4714 25.6044 57.6818 26.2717 58.1393C26.5189 58.3851 26.7092 58.6822 26.8291 59.0097C26.9489 59.3372 26.9953 59.6871 26.9651 60.0345C26.9715 60.4518 26.9383 60.8686 26.8661 61.2796L25.292 70.6454C31.8378 69.8154 35.1107 66.4106 35.1107 60.4312Z" fill="white"/>
<path d="M58.6704 81.0693C58.9141 81.5616 59.0314 82.1069 59.0117 82.6559C59.0117 84.1912 58.5493 85.1021 57.6247 85.3886C55.5808 86.0665 53.4479 86.4378 51.2954 86.4904C50.8124 88.9807 49.552 91.2532 47.6959 92.9804C46.0538 94.542 43.8737 95.4101 41.6087 95.4045C39.8688 95.4559 38.1551 94.9713 36.6993 94.0161C35.3459 93.0971 34.2748 91.819 33.6062 90.3249C32.8801 88.7613 32.5044 87.0577 32.5055 85.3335C32.4638 83.0887 32.9383 80.8644 33.8924 78.8325C34.7462 77.0427 36.0703 75.5191 37.723 74.4251C39.3276 73.3603 41.2137 72.8 43.1388 72.8163C44.2423 72.7762 45.3409 72.9818 46.3555 73.4181C47.37 73.8545 48.2752 74.5107 49.0058 75.3396C50.5368 77.053 51.4816 79.2109 51.7026 81.499C53.5193 81.3493 55.3179 81.0284 57.0743 80.5404C57.2934 80.4806 57.5188 80.4473 57.7458 80.4412C57.9419 80.4538 58.131 80.5186 58.2936 80.6291C58.4562 80.7395 58.5863 80.8915 58.6704 81.0693ZM44.6578 89.0798C45.5071 88.0522 46.0422 86.8012 46.1989 85.4767C45.2178 84.8186 44.4309 83.9092 43.9203 82.8433C43.3957 81.7696 43.1245 80.5896 43.1277 79.3944C43.1282 78.8806 43.1761 78.3679 43.2708 77.8629H43.0067C42.3606 77.8713 41.7276 78.046 41.1685 78.3702C40.6095 78.6944 40.1431 79.1572 39.8145 79.714C38.8642 81.2721 38.4039 83.0804 38.4936 84.9037C38.401 86.324 38.7635 87.7367 39.5283 88.9366C39.7876 89.3487 40.144 89.6909 40.5662 89.9329C40.9884 90.175 41.4636 90.3096 41.9499 90.3249C42.4653 90.3311 42.9755 90.2226 43.4438 90.0073C43.9121 89.792 44.3268 89.4752 44.6578 89.0798Z" fill="white"/>
<path d="M80.4102 85.1682C80.6662 85.6289 80.7918 86.1508 80.7735 86.6777C80.8015 87.2735 80.6843 87.8672 80.4322 88.4077C80.1644 88.8623 79.7856 89.2414 79.3315 89.5095C76.5796 91.368 74.5652 92.7416 73.2883 93.6305L70.2172 95.691C69.3849 101.097 67.7796 106.356 65.4509 111.304C63.4843 115.095 60.9856 116.99 57.9548 116.99C57.2251 117.019 56.497 116.9 55.8142 116.641C55.1314 116.381 54.5079 115.987 53.9811 115.48C53.4677 114.962 53.0668 114.343 52.8035 113.662C52.5402 112.982 52.4202 112.254 52.451 111.525C52.5854 108.87 53.522 106.319 55.1369 104.208C56.9274 101.601 60.2811 98.3942 65.1978 94.5891L65.484 92.7159C64.9745 93.5196 64.2752 94.1852 63.4477 94.6541C62.6203 95.123 61.6902 95.3807 60.7397 95.4045C59.832 95.4329 58.9303 95.2484 58.1065 94.8658C57.2827 94.4832 56.5598 93.913 55.9955 93.2008C54.7542 91.5821 54.1263 89.5754 54.2232 87.5372C54.2153 85.005 54.8235 82.509 55.9955 80.2649C57.1003 78.0725 58.7209 76.1818 60.7177 74.7556C62.5296 73.4176 64.7184 72.6886 66.97 72.6731C67.2202 72.6426 67.4739 72.6629 67.716 72.733C67.9582 72.803 68.1836 72.9213 68.379 73.0808C68.6878 73.5166 68.8913 74.0182 68.9734 74.5462C69.6695 74.4112 70.3778 74.3485 71.0868 74.3589C71.6789 74.3099 72.2722 74.4364 72.793 74.7225C72.9824 74.9011 73.127 75.1219 73.215 75.367C73.303 75.6121 73.3319 75.8745 73.2993 76.1329C73.3195 76.4374 73.3195 76.743 73.2993 77.0475C73.1746 78.0391 72.7746 80.5477 72.0995 84.5732C71.9748 85.3078 71.839 86.1488 71.6922 87.0964L71.2409 89.9943C73.6993 88.0771 76.0622 86.3802 78.3298 84.9037C78.6554 84.6785 79.0357 84.5452 79.4305 84.5181C79.6385 84.5227 79.8409 84.5862 80.0143 84.7013C80.1877 84.8164 80.325 84.9782 80.4102 85.1682ZM61.2351 109.508C62.5696 106.582 63.5418 103.503 64.13 100.341C62.099 101.984 60.3093 103.906 58.8134 106.048C57.8724 107.338 57.3083 108.864 57.1843 110.456C57.1648 110.924 57.2713 111.388 57.4925 111.8C57.5985 111.976 57.7516 112.119 57.9345 112.212C58.1173 112.306 58.3226 112.346 58.5272 112.329C59.3271 112.336 60.2297 111.396 61.2351 109.508ZM64.6144 89.2671C65.378 88.098 65.8568 86.7657 66.0123 85.3775L67.5424 77.1687C66.1863 77.2182 64.8933 77.754 63.8989 78.6782C62.7189 79.7396 61.7998 81.0594 61.213 82.5347C60.5409 84.147 60.2002 85.8783 60.2114 87.6253C60.1494 88.4066 60.3594 89.1852 60.8058 89.8291C61.0078 90.0671 61.2617 90.2554 61.548 90.3796C61.8343 90.5038 62.1453 90.5605 62.4569 90.5453C62.8959 90.5137 63.321 90.3771 63.6964 90.147C64.0718 89.9169 64.3866 89.6001 64.6144 89.223V89.2671Z" fill="white"/>
<path d="M78.682 93.4211C77.7279 91.9443 77.2513 90.2092 77.317 88.4517C77.3033 86.2387 77.4653 84.028 77.8014 81.8406C78.1604 79.6826 78.6904 77.5566 79.3864 75.4828C79.6074 74.6722 80.0772 73.9514 80.7294 73.4224C81.5549 72.9415 82.5068 72.7225 83.4592 72.7943C83.9701 72.7434 84.4837 72.8593 84.9233 73.1249C85.0643 73.2512 85.1744 73.4083 85.2451 73.5841C85.3157 73.7599 85.3449 73.9496 85.3305 74.1386C85.2118 75.0124 85.0353 75.8775 84.8022 76.7279C84.4793 77.9106 84.2224 78.9831 84.0316 79.9454C83.5453 82.155 83.2252 84.3981 83.074 86.6557C83.0393 87.1385 83.1224 87.6226 83.3161 88.0661C83.3938 88.1992 83.5071 88.308 83.6433 88.38C83.7795 88.4521 83.933 88.4845 84.0867 88.4738C84.5637 88.4738 85.1618 87.9926 85.8809 87.0303C86.8182 85.6568 87.5904 84.1775 88.1815 82.6229C89.1292 80.2787 89.9234 77.8752 90.5591 75.4277C90.6118 75.0166 90.7457 74.6201 90.9532 74.2615C91.1607 73.9028 91.4376 73.5891 91.7676 73.3388C92.0976 73.0884 92.4742 72.9065 92.8753 72.8035C93.2764 72.7006 93.6939 72.6787 94.1036 72.7392C94.6276 72.699 95.1534 72.7899 95.6336 73.0037C95.7826 73.1171 95.9001 73.2667 95.9752 73.4383C96.0504 73.6099 96.0805 73.7978 96.0629 73.9843C95.8229 76.2141 95.4219 78.4236 94.8631 80.5955C94.2331 83.0866 93.7843 85.6202 93.5202 88.1763C93.4913 88.6759 93.6266 89.1712 93.9054 89.5867C94.0185 89.7465 94.1688 89.8762 94.3434 89.9646C94.518 90.0529 94.7115 90.0972 94.9071 90.0935C95.7814 89.9805 96.588 89.5632 97.1857 88.9145C98.4441 87.7244 99.6209 86.4507 100.708 85.1021C100.86 84.8995 101.056 84.7339 101.281 84.6176C101.506 84.5012 101.754 84.4371 102.007 84.4299C102.207 84.4274 102.404 84.4794 102.576 84.5803C102.749 84.6813 102.891 84.8274 102.987 85.0029C103.253 85.4877 103.379 86.0372 103.35 86.5896C103.417 87.6595 103.092 88.7172 102.436 89.5646C101.176 91.1609 99.6935 92.5673 98.0333 93.7407C96.4473 94.8301 94.5627 95.3998 92.6396 95.3714C91.9679 95.4148 91.2972 95.2722 90.7011 94.9593C90.105 94.6464 89.6065 94.1752 89.2602 93.5974C88.4503 92.0634 88.07 90.3387 88.1595 88.606C87.7783 90.456 86.9379 92.1802 85.7158 93.6195C85.2894 94.1428 84.7569 94.5697 84.1535 94.8717C83.5501 95.1737 82.8895 95.344 82.2154 95.3714C81.5087 95.3773 80.8125 95.2009 80.1936 94.8593C79.5748 94.5177 79.0542 94.0225 78.682 93.4211Z" fill="white"/>
<path d="M125.739 85.047C126.005 85.5318 126.131 86.0813 126.103 86.6337C126.17 87.7036 125.845 88.7613 125.189 89.6087C123.856 91.1797 122.337 92.5821 120.665 93.7848C119.115 94.8725 117.262 95.4431 115.37 95.4155C114.704 95.4858 114.031 95.3816 113.418 95.1131C112.804 94.8446 112.271 94.421 111.87 93.8839C111.108 92.4742 110.761 90.8773 110.868 89.2782C110.882 88.2346 110.963 87.1931 111.11 86.1599C108.3 86.1599 106.351 86.1268 105.265 86.0607C105.199 86.9569 105.166 87.5813 105.166 87.9339V88.9366C105.166 90.9199 105.118 92.312 105.023 93.1126C105.019 93.7421 104.819 94.3546 104.451 94.8646C104.242 95.0663 103.993 95.2201 103.719 95.3152C103.445 95.4104 103.154 95.4446 102.866 95.4155C102.286 95.4247 101.721 95.2415 101.257 94.8946C100.793 94.5477 100.456 94.0567 100.301 93.4983C99.7106 91.5089 99.4612 89.4337 99.5633 87.3609C99.542 83.3449 100.14 79.3495 101.336 75.5159C101.547 74.6958 102.038 73.9751 102.722 73.4775C103.567 72.992 104.535 72.7659 105.507 72.8274C105.968 72.7921 106.431 72.8755 106.85 73.0698C106.989 73.1749 107.098 73.3148 107.165 73.4753C107.233 73.6359 107.257 73.8114 107.236 73.9843C107.109 75.1543 106.869 76.3093 106.52 77.4331C106.263 78.4909 106.025 79.7691 105.805 81.2676H111.936C112.259 79.7985 112.721 77.8812 113.323 75.5159C113.375 75.1048 113.509 74.7083 113.717 74.3496C113.924 73.9909 114.201 73.6773 114.531 73.4269C114.861 73.1766 115.238 72.9947 115.639 72.8917C116.04 72.7888 116.458 72.7669 116.867 72.8274C117.391 72.7872 117.917 72.8781 118.397 73.0918C118.546 73.2053 118.664 73.3548 118.739 73.5264C118.814 73.698 118.844 73.886 118.827 74.0725C118.586 76.3023 118.186 78.5118 117.627 80.6836C116.997 83.1748 116.548 85.7084 116.284 88.2644C116.248 88.7616 116.376 89.2567 116.647 89.6748C116.762 89.8355 116.914 89.9657 117.091 90.054C117.267 90.1424 117.462 90.1862 117.66 90.1817C118.534 90.0696 119.341 89.6521 119.938 89.0027C121.196 87.8123 122.373 86.5386 123.461 85.1903C123.613 84.9877 123.809 84.8221 124.033 84.7057C124.258 84.5894 124.507 84.5252 124.76 84.5181C124.955 84.5112 125.149 84.5565 125.321 84.6495C125.493 84.7424 125.638 84.8797 125.739 85.047Z" fill="white"/>
<path d="M123.373 93.2448C122.132 91.6262 121.504 89.6195 121.601 87.5813C121.593 85.0491 122.201 82.5531 123.373 80.309C124.478 78.1166 126.098 76.2259 128.095 74.7997C129.907 73.4617 132.096 72.7327 134.347 72.7172C134.598 72.6867 134.851 72.707 135.093 72.7771C135.336 72.8471 135.561 72.9654 135.756 73.1249C136.065 73.5607 136.269 74.0623 136.351 74.5903C137.048 74.4613 137.755 74.3986 138.464 74.403C140.027 74.403 140.809 74.9613 140.809 76.0779C140.678 77.6898 140.439 79.2911 140.093 80.8709C139.511 83.4065 139.143 85.9866 138.993 88.584C138.984 88.982 139.112 89.3709 139.356 89.6858C139.468 89.825 139.611 89.9362 139.773 90.0107C139.935 90.0853 140.113 90.1212 140.291 90.1156C141.141 89.9944 141.921 89.5768 142.493 88.9366C143.739 87.7406 144.908 86.4672 145.993 85.1241C146.145 84.9216 146.341 84.756 146.566 84.6396C146.791 84.5232 147.039 84.4591 147.292 84.452C147.492 84.4495 147.689 84.5014 147.861 84.6024C148.034 84.7033 148.176 84.8494 148.272 85.025C148.537 85.51 148.663 86.0593 148.635 86.6116C148.702 87.6815 148.377 88.7392 147.722 89.5867C146.503 91.1243 145.102 92.5081 143.55 93.7076C142.353 94.7206 140.855 95.3094 139.29 95.3825C138.224 95.3723 137.198 94.9816 136.395 94.2806C135.473 93.4974 134.784 92.4759 134.402 91.3276C132.744 94.0161 130.652 95.3604 128.128 95.3604C127.226 95.4011 126.327 95.2311 125.501 94.8639C124.676 94.4968 123.947 93.9425 123.373 93.2448ZM131.86 89.3112C132.564 88.3273 133.038 87.1976 133.247 86.0056L135.019 77.1907C133.643 77.2382 132.328 77.7731 131.309 78.7003C130.118 79.756 129.19 81.0769 128.601 82.5568C127.929 84.1691 127.589 85.9004 127.6 87.6474C127.538 88.4286 127.748 89.2073 128.194 89.8511C128.396 90.0891 128.65 90.2775 128.936 90.4017C129.223 90.5259 129.534 90.5825 129.845 90.5673C130.254 90.5289 130.648 90.3953 130.996 90.1772C131.344 89.9591 131.636 89.6625 131.849 89.3112H131.86Z" fill="white"/>
<path fill-rule="evenodd" clip-rule="evenodd" d="M44.9878 66.3264C45.1044 65.9189 45.3497 65.5601 45.6871 65.3039C46.0244 65.0476 46.4356 64.9077 46.8591 64.905H141.458C144.066 64.8732 146.587 63.9608 148.613 62.3156C148.613 62.3156 148.096 68.9268 142.008 68.9268H46.8481C46.5455 68.9289 46.2466 68.8601 45.9753 68.7258C45.7041 68.5915 45.468 68.3954 45.2861 68.1533C45.1042 67.9112 44.9814 67.6298 44.9277 67.3317C44.874 67.0336 44.8908 66.727 44.9768 66.4366L44.9878 66.3264Z" fill="white"/>
<path fill-rule="evenodd" clip-rule="evenodd" d="M53.4944 53.2642C53.4944 53.2642 53.1236 45.1285 56.2821 42.4409C54.0331 39.6998 54.4483 37.2313 55.2441 36.3598C53.5042 34.3344 53.4993 31.5787 54.5521 30.0938C52.8024 28.9739 53.959 25.7849 55.4171 25.4684C55.2144 21.812 61.6993 18.1653 63.5331 19.3776C63.9236 16.7826 68.5352 16.286 69.5781 17.9559C71.5552 16.1009 77.2938 15.244 80.4522 18.0533C83.9121 15.804 90.4267 17.211 91.1582 19.0271C92.6757 16.914 97.1983 15.3414 101.538 18.4623C104.543 16.0279 110.483 15.0574 112.5 17C113.029 14.8139 115.097 12.2697 117 13C117.554 16.4471 119.894 18.0243 121.5 18C122.128 21.8609 125.028 23.3457 127 23C127.875 25.4977 127.784 31.1065 122.258 32.6352C122.985 37.246 119.001 39.583 117.251 39.2908C116.95 41.657 114.928 43.4487 112.59 42.5286C110.297 44.5832 107.201 47.0373 106 52.5C107.512 40.3573 108 35 108 35C108 35 102.942 34.8554 99.645 44.7195C96.6101 46.4187 95.3299 43.8626 95.3299 43.8626C95.3299 43.8626 91.1978 47.7576 87.5599 44.1596C84.5942 45.0019 80.0271 41.8859 78.9298 39.0474C77.2542 43.4926 71.6047 46.555 71.6047 46.555L75.9197 59.1408C75.9197 59.1408 68.4314 49.2961 67.4824 45.5813C66.5334 41.8664 66.9881 41.6863 66.9881 41.6863C66.9881 41.6863 61.2644 38.6189 60.0682 32.4356C58.0911 35.3179 56.7961 37.4115 60.2412 45.0165C57.621 47.4499 55.3511 50.2248 53.4944 53.2642Z" fill="white"/>
<path fill-rule="evenodd" clip-rule="evenodd" d="M127.216 31.0675C125.699 33.2584 124.592 33.127 124.107 33.2779C123.623 33.4288 123.959 34.4318 123.415 35.6587C122.871 36.8857 122.427 38.283 120.825 39.5537C119.224 40.8245 118.141 41.4428 117.029 42.4458C115.917 43.4487 115.442 42.4068 112.541 43.2978C109.64 44.1888 105.127 53.5222 105.127 53.5222C105.127 53.5222 105.784 39.9335 108.587 34.3052C108.681 38.2538 116.001 39.0863 118.255 33.6236C125.773 30.8289 126.544 23.3992 126.544 23.3992C126.544 23.3992 128.986 26.3205 128.961 27.4792C128.936 28.638 128.739 28.8766 127.216 31.0675ZM104.43 46.555L100.115 45.8734L100.174 45.664L93.9019 44.8509L90.1059 46.7205C90.1059 46.7205 80.7146 42.4117 80.4378 42.4701C80.161 42.5285 78.0307 40.7612 78.0307 40.7612C78.0307 40.7612 75.5939 44.1693 75.4407 44.3349L72.6777 47.3973L75.9596 56.4094H74.3878C74.3878 56.4094 72.9297 57.7093 70.4336 52.5144C67.9375 47.3194 65.7726 40.099 65.7726 40.099L66.7908 39.2519C66.7908 39.2519 71.3777 44.6367 79.0489 37.3823C83.0031 40.2208 97.5052 43.1031 102.186 38.7407C102.074 39.7739 101.909 40.8009 101.692 41.8177C103.669 38.1954 106.14 36.8711 106.14 36.8711L104.43 46.555ZM59.8858 33.4532C62.9948 37.689 65.9308 42.4653 65.9308 42.4653V44.3349C65.9308 44.3349 62.7674 43.2589 60.4048 44.6757C59.7626 42.9653 59.3505 41.1796 59.179 39.3639C59.3124 42.5578 59.782 45.1041 60.0588 45.6932C60.5926 46.8277 53.8457 49.9437 53.8457 49.9437C53.8457 49.9437 56.6483 33.6723 60.0588 29.8747C59.474 32.1181 59.1686 34.4234 59.1493 36.7396C59.2253 35.6138 59.4736 34.5059 59.8858 33.4532Z" fill="#EBEBEB"/>
<path fill-rule="evenodd" clip-rule="evenodd" d="M138.96 8.0921C143.724 16.2814 143.794 18.7449 143.102 19.9962C142.41 21.2475 140.166 21.637 134.986 19.8258C135.401 22.6399 133.809 25.9215 130.325 26.6421C130.221 27.8933 129.46 33.0639 124.626 34.4662C124.453 42.3292 118.926 42.6311 118.926 42.6311C118.926 42.6311 117.632 45.9029 113.227 44.8415C111.586 45.7325 108.22 49.4765 108.22 54.7056C108.22 63.3379 111.329 68.9905 111.329 68.9905C111.329 68.9905 111.245 69.0343 105.284 67.4617C102.423 63.3184 102.368 54.1213 103.11 47.1103C101.79 47.2223 101.177 46.974 100.935 46.8231C99.452 47.7286 97.0646 47.5047 95.0974 46.0343C93.4268 47.8893 89.1117 48.6002 86.9814 46.0343C81.0254 46.8425 78.8654 42.4606 78.8654 42.4606C78.8654 42.4606 77.7434 44.9681 73.6854 46.5407C74.6344 51.4094 83.5264 68.1385 83.5264 68.1385H76.9772C76.9772 68.1385 69.4692 53.727 66.9632 48.5807C66.2462 47.5988 65.6193 46.556 65.0899 45.4647C64.4305 45.5079 63.7793 45.6339 63.1523 45.8396C63.1523 45.8396 58.1453 47.753 56.7663 52.6558C55.3872 57.5587 57.1123 67.452 57.1123 67.452C57.1123 67.452 54.2899 68.1336 50.3802 68.8104C49.2631 62.5491 50.8053 50.2068 51.7592 46.7013C51.4034 43.2932 52.1497 41.3457 54.0033 39.2181C51.9224 36.4964 51.0376 34.1156 52.6242 32.9276C50.6471 31.7348 50.9981 29.8408 51.7592 27.314C49.5597 25.2107 50.2171 21.1452 53.3162 20.8677C54.2158 16.8461 58.9114 14.5383 61.9463 14.5773C63.1919 11.9482 67.0917 11.2178 69.3604 13.2189C72.3261 11.2373 77.8521 11.4272 80.7535 14.0709C84.5891 11.7145 87.6734 12.6833 90.9406 14.5578C93.7728 11.6366 97.5688 12.1234 101.474 14.7282C102.676 13.5937 104.216 12.8678 105.867 12.6566C107.519 12.4455 109.195 12.7603 110.652 13.5548C111.147 11.7096 112.629 10.7407 114.794 11.174C114.829 9.39693 117.419 7.33745 119.282 7.43482C118.625 5.48732 121.526 2.00129 124.116 2.16196C124.532 1.33427 126.845 -0.311367 130.502 0.292358C133.127 -0.53533 134.299 0.472503 136.201 2.33237C138.964 2.1863 139.661 4.03156 139.661 4.03156C141.447 4.15107 143.24 4.09398 145.014 3.86116C144.382 5.00531 142.617 7.74642 138.96 8.0921ZM103.372 44.3156C103.727 41.7157 103.821 41.5745 104.237 40.4206C103.255 41.448 102.628 42.7553 102.447 44.155C102.756 44.241 103.072 44.3013 103.391 44.3351L103.372 44.3156ZM61.6102 41.1023C61.5047 41.7543 61.5572 42.4216 61.7634 43.0498C62.4954 42.7697 63.2678 42.6054 64.0519 42.5629C63.9407 42.1259 63.8745 41.6789 63.8542 41.2289C61.8495 39.7076 60.4502 37.5419 59.9 35.1088C59.4502 36.7253 59.9692 40.2941 61.6102 41.1023ZM116.514 12.8635C114.611 12.0553 112.56 14.1001 112.026 16.2716C110.01 14.2559 104.504 15.1421 101.493 17.4645C97.1734 14.1781 92.6508 15.5803 91.1136 17.6349C90.387 15.8091 83.8773 14.1586 80.4075 16.2765C77.2441 13.3552 71.5105 13.9882 69.5334 15.7896C68.4905 14.0758 63.8789 14.3971 63.4884 16.9825C61.6547 15.6874 55.1698 19.1004 55.3724 22.7665C53.8896 23.0246 52.7626 26.1747 54.5074 27.3578C53.4546 28.8184 53.4596 31.5595 55.1994 33.6482C54.4234 34.4613 54.0082 36.92 56.2819 39.739C53.1482 42.3048 53.5189 50.4503 53.5189 50.4503C53.5189 50.4503 54.6952 48.6148 59.2179 44.4958C55.7579 36.7593 58.1058 32.6793 60.0829 29.8895C61.2642 36.1313 67.0027 39.4128 67.0027 39.4128C67.0027 39.4128 66.5727 39.5783 67.497 43.3078C68.4213 47.0373 74.5701 56.58 74.5701 56.58L70.2551 44.8463C70.2551 44.8463 77.2639 41.594 78.8851 37.1927C79.9824 40.075 84.5693 43.3614 87.5152 42.6359C91.1531 46.3605 95.2852 42.6359 95.2852 42.6359C95.2852 42.6359 96.5654 45.2407 99.6003 43.6584C102.897 33.9209 108.576 34.1351 108.576 34.1351C108.576 34.1351 107.687 39.2229 106.154 51.3072C107.355 45.8883 110.247 43.9213 112.54 41.9543C114.878 42.9621 116.9 41.2483 117.201 38.8919C118.951 39.2521 122.935 37.0661 122.208 32.431C127.739 31.1116 127.398 26.1016 126.524 23.5894C124.546 23.862 121.971 22.3722 121.344 18.4869C119.801 19.2902 115.595 17.4742 116.514 12.8732V12.8635ZM124.626 6.24198C122.386 7.13783 119.618 10.8332 119.618 10.8332C119.618 10.8332 123.756 11.807 127.216 10.3463C130.675 8.88571 128.97 4.4941 124.626 6.24198ZM121.002 43.634C121.002 43.634 125.748 41.5697 126.182 37.514C132.89 42.6408 137.66 49.6859 137.235 50.2701C136.809 50.8544 125.668 59.623 125.668 59.623L121.353 54.1797C121.353 54.1797 127.191 51.5506 131.021 49.4181C128.634 47.1347 121.002 43.634 121.002 43.634Z" fill="white"/>
<path fill-rule="evenodd" clip-rule="evenodd" d="M148.019 104.319H72.617C72.4733 104.319 72.3315 104.287 72.202 104.224C72.0725 104.162 71.9586 104.072 71.8687 103.96C71.7789 103.847 71.7154 103.717 71.683 103.576C71.6505 103.436 71.65 103.291 71.6813 103.151L72.1326 101.101C72.1802 100.888 72.2988 100.698 72.4689 100.562C72.639 100.426 72.8504 100.352 73.0683 100.352H148.019C148.493 100.352 148.951 100.522 149.311 100.831C149.67 101.14 149.907 101.569 149.978 102.038C150.021 102.32 150.002 102.608 149.923 102.883C149.845 103.158 149.708 103.412 149.521 103.628C149.335 103.845 149.105 104.019 148.845 104.138C148.586 104.257 148.304 104.319 148.019 104.319Z" fill="white"/>
<path fill-rule="evenodd" clip-rule="evenodd" d="M53.2656 101.564C53.3698 101.471 53.4435 101.348 53.477 101.213C53.5106 101.077 53.5024 100.934 53.4537 100.803C53.4049 100.673 53.3178 100.559 53.2037 100.479C53.0896 100.398 52.9539 100.354 52.8143 100.352H7.15491C4.54667 100.32 2.02556 99.4076 0 97.7625C0 97.7625 0.517355 104.374 6.60454 104.374H50.2165C50.4372 104.373 50.6541 104.316 50.8467 104.208C51.0393 104.1 51.2013 103.945 51.3172 103.757C51.8354 102.919 52.4946 102.177 53.2656 101.564Z" fill="white"/>
<path d="M37.2034 123.132C36.7715 123.129 36.3437 123.215 35.946 123.385C35.581 123.54 35.259 123.783 35.008 124.091L35.7851 124.821C35.9524 124.621 36.1616 124.46 36.3977 124.351C36.6338 124.242 36.8909 124.187 37.1506 124.19C37.5007 124.181 37.8428 124.297 38.1163 124.517C38.3857 124.739 38.572 125.047 38.6444 125.39H36.5093V126.332H38.6519C38.5872 126.69 38.4026 127.014 38.1289 127.251C37.853 127.481 37.5036 127.603 37.1456 127.593C36.8859 127.596 36.6287 127.541 36.3927 127.432C36.1566 127.323 35.9474 127.163 35.78 126.963L35.003 127.692C35.2539 128.001 35.5759 128.243 35.941 128.398C36.3386 128.568 36.7665 128.654 37.1984 128.651C37.6894 128.66 38.1741 128.538 38.6042 128.3C39.0129 128.07 39.3506 127.731 39.5799 127.32C39.8126 126.884 39.9343 126.398 39.9343 125.903C39.9343 125.409 39.8126 124.922 39.5799 124.486C39.3506 124.076 39.0129 123.736 38.6042 123.507C38.1741 123.268 37.6894 123.147 37.1984 123.155L37.2034 123.132Z" fill="white"/>
<path d="M49.976 128.54H51.3642L49.5837 125.79L51.3114 123.223H50.0138L48.6256 125.373H47.7504V123.223H46.5433V128.54H47.7504V126.398H48.5954L49.976 128.54Z" fill="white"/>
<path d="M60.093 128.631C60.6079 128.639 61.1165 128.517 61.5717 128.274C62.0025 128.043 62.3627 127.698 62.6138 127.277C62.865 126.855 62.9976 126.373 62.9976 125.882C62.9976 125.39 62.865 124.908 62.6138 124.486C62.3627 124.065 62.0025 123.72 61.5717 123.489C61.1131 123.254 60.6061 123.132 60.0918 123.132C59.5775 123.132 59.0704 123.254 58.6118 123.489C58.1843 123.715 57.8267 124.055 57.5782 124.471C57.3336 124.9 57.2048 125.386 57.2048 125.88C57.2048 126.375 57.3336 126.861 57.5782 127.289C57.8267 127.706 58.1843 128.046 58.6118 128.272C59.0681 128.514 59.5774 128.636 60.093 128.629V128.631ZM60.093 127.583C59.7974 127.588 59.5059 127.513 59.2481 127.368C58.9985 127.226 58.793 127.018 58.6546 126.765C58.5116 126.492 58.4369 126.188 58.4369 125.879C58.4369 125.57 58.5116 125.266 58.6546 124.993C58.793 124.74 58.9985 124.532 59.2481 124.39C59.5071 124.248 59.7977 124.173 60.093 124.173C60.3884 124.173 60.6789 124.248 60.938 124.39C61.1866 124.532 61.3912 124.741 61.529 124.993C61.6719 125.266 61.7466 125.57 61.7466 125.879C61.7466 126.188 61.6719 126.492 61.529 126.765C61.3912 127.017 61.1866 127.226 60.938 127.368C60.6801 127.513 60.3886 127.588 60.093 127.583Z" fill="white"/>
<path d="M75.8382 125.866C75.8518 125.555 75.7948 125.245 75.6715 124.959C75.5481 124.674 75.3617 124.42 75.1265 124.218C74.652 123.813 73.9697 123.585 73.0794 123.534V122.995H71.9553V123.542C71.0601 123.598 70.3752 123.824 69.9007 124.221C69.6755 124.431 69.4959 124.685 69.373 124.968C69.2502 125.252 69.1867 125.557 69.1867 125.866C69.1867 126.175 69.2502 126.481 69.373 126.764C69.4959 127.048 69.6755 127.302 69.9007 127.512C70.3752 127.914 71.0601 128.14 71.9553 128.191V128.776H73.0794V128.198C73.9697 128.153 74.652 127.929 75.1265 127.527C75.3628 127.324 75.5498 127.069 75.6732 126.781C75.7965 126.494 75.853 126.182 75.8382 125.869V125.866ZM73.0719 127.234V124.507C74.1281 124.598 74.6562 125.049 74.6562 125.859C74.6667 126.038 74.6368 126.218 74.5689 126.384C74.501 126.55 74.3967 126.698 74.2639 126.818C73.9174 127.075 73.5016 127.219 73.0719 127.231V127.234ZM70.3635 125.866C70.3522 125.689 70.3813 125.51 70.4484 125.346C70.5154 125.181 70.6188 125.033 70.7507 124.914C71.0997 124.662 71.5158 124.521 71.9453 124.509V127.239C70.889 127.127 70.3609 126.672 70.3609 125.871L70.3635 125.866Z" fill="white"/>
<path d="M83.624 127.553V126.322H86.0759V125.365H83.624V124.2H86.3903V123.213H82.4093V128.53H86.4984V127.543L83.624 127.553Z" fill="white"/>
<path d="M95.4309 123.223H93.145V128.54H94.3672V127.074H95.4309C95.8482 127.084 96.2629 127.006 96.6481 126.844C96.973 126.705 97.2496 126.473 97.4428 126.175C97.6251 125.866 97.7214 125.512 97.7214 125.152C97.7214 124.792 97.6251 124.439 97.4428 124.129C97.2481 123.834 96.972 123.601 96.6481 123.461C96.2636 123.296 95.8487 123.216 95.4309 123.226V123.223ZM95.363 126.071H94.3571V124.226H95.363C95.6612 124.205 95.9573 124.289 96.2004 124.464C96.2972 124.548 96.3734 124.654 96.4231 124.773C96.4728 124.892 96.4947 125.021 96.4871 125.15C96.4947 125.278 96.4727 125.406 96.423 125.524C96.3733 125.642 96.2971 125.747 96.2004 125.831C95.9573 126.006 95.6612 126.09 95.363 126.069V126.071Z" fill="white"/>
<path d="M110.142 128.54V123.223H109.137L107.19 126.515L105.213 123.223H104.208V128.54H105.339V125.418L106.893 127.978H107.437L108.991 125.357V128.54H110.142Z" fill="white"/>
<path d="M121.157 128.54H122.44L120.078 123.223H118.871L116.517 128.54H117.775L118.243 127.401H120.679L121.157 128.54ZM118.642 126.466L119.48 124.441L120.317 126.466H118.642Z" fill="white"/>
</svg>
