<svg width="170" height="88" viewBox="0 0 170 88" fill="none" xmlns="http://www.w3.org/2000/svg">
<path d="M3.00101 29L13.001 27.6667L12.097 27.4256C11.0402 27.1438 10.0367 26.6905 9.12666 26.0838L9.00101 26L5.50101 25.4444L3.00101 29Z" fill="white"/>
<path d="M84.7646 72.8642C84.3327 72.8615 83.9049 72.9477 83.5072 73.1174C83.1422 73.2726 82.8202 73.5151 82.5692 73.8238L83.3463 74.553C83.5136 74.353 83.7228 74.1927 83.9589 74.0837C84.195 73.9747 84.4521 73.9197 84.7118 73.9225C85.0619 73.9132 85.404 74.0289 85.6775 74.2491C85.9469 74.4715 86.1332 74.7795 86.2056 75.1226H84.0705V76.0645H86.2131C86.1484 76.4221 85.9638 76.7466 85.69 76.9836C85.4142 77.2137 85.0648 77.3351 84.7068 77.3254C84.4471 77.3283 84.1899 77.2732 83.9539 77.1642C83.7178 77.0552 83.5086 76.895 83.3412 76.695L82.5642 77.4242C82.8151 77.7329 83.1371 77.9754 83.5022 78.1306C83.8998 78.3003 84.3277 78.3865 84.7596 78.3838C85.2506 78.3919 85.7353 78.2705 86.1654 78.0318C86.5741 77.802 86.9118 77.4629 87.1411 77.052C87.3737 76.6165 87.4955 76.1298 87.4955 75.6354C87.4955 75.1409 87.3737 74.6542 87.1411 74.2187C86.9118 73.8078 86.5741 73.4687 86.1654 73.2389C85.7353 73.0002 85.2506 72.8789 84.7596 72.8869L84.7646 72.8642Z" fill="white"/>
<path d="M97.5372 78.2724H98.9254L97.1449 75.5227L98.8726 72.9553H97.575L96.1868 75.105H95.3116V72.9553H94.1045V78.2724H95.3116V76.1304H96.1566L97.5372 78.2724Z" fill="white"/>
<path d="M107.654 78.3636C108.169 78.3717 108.678 78.2489 109.133 78.0066C109.564 77.7753 109.924 77.4305 110.175 77.009C110.426 76.5876 110.559 76.1054 110.559 75.6139C110.559 75.1224 110.426 74.6402 110.175 74.2187C109.924 73.7973 109.564 73.4525 109.133 73.2212C108.674 72.9868 108.167 72.8646 107.653 72.8646C107.139 72.8646 106.632 72.9868 106.173 73.2212C105.745 73.447 105.388 73.7868 105.139 74.2036C104.895 74.6323 104.766 75.1181 104.766 75.6126C104.766 76.1071 104.895 76.5929 105.139 77.0216C105.388 77.4384 105.745 77.7783 106.173 78.004C106.629 78.246 107.139 78.3687 107.654 78.361V78.3636ZM107.654 77.3153C107.359 77.3199 107.067 77.2457 106.809 77.1001C106.56 76.9587 106.354 76.75 106.216 76.4975C106.073 76.2243 105.998 75.9202 105.998 75.6113C105.998 75.3025 106.073 74.9984 106.216 74.7252C106.354 74.4727 106.56 74.264 106.809 74.1226C107.068 73.9798 107.359 73.905 107.654 73.905C107.95 73.905 108.24 73.9798 108.499 74.1226C108.748 74.2645 108.952 74.4731 109.09 74.7252C109.233 74.9984 109.308 75.3025 109.308 75.6113C109.308 75.9202 109.233 76.2243 109.09 76.4975C108.952 76.7496 108.748 76.9582 108.499 77.1001C108.241 77.2456 107.95 77.3198 107.654 77.3153Z" fill="white"/>
<path d="M123.399 75.5987C123.413 75.2875 123.356 74.9774 123.233 74.6917C123.109 74.4061 122.923 74.1526 122.688 73.9504C122.213 73.5453 121.531 73.3174 120.641 73.2668V72.7275H119.517V73.2744C118.621 73.3301 117.936 73.5563 117.462 73.9529C117.237 74.1629 117.057 74.4175 116.934 74.7007C116.811 74.9839 116.748 75.2896 116.748 75.5987C116.748 75.9077 116.811 76.2134 116.934 76.4966C117.057 76.7798 117.237 77.0344 117.462 77.2444C117.936 77.6462 118.621 77.8724 119.517 77.923V78.5079H120.641V77.9306C121.531 77.885 122.213 77.6614 122.688 77.2596C122.924 77.0561 123.111 76.8009 123.234 76.5135C123.358 76.226 123.414 75.914 123.399 75.6012V75.5987ZM120.633 76.9659V74.239C121.689 74.3302 122.217 74.7809 122.217 75.5911C122.228 75.7704 122.198 75.9499 122.13 76.116C122.062 76.2821 121.958 76.4307 121.825 76.5507C121.479 76.8069 121.063 76.9509 120.633 76.9634V76.9659ZM117.925 75.5987C117.913 75.4208 117.942 75.2427 118.01 75.0778C118.077 74.9129 118.18 74.7655 118.312 74.6467C118.661 74.3944 119.077 74.2533 119.506 74.2416V76.971C118.45 76.8596 117.922 76.4038 117.922 75.6037L117.925 75.5987Z" fill="white"/>
<path d="M131.185 77.285V76.0545H133.637V75.0974H131.185V73.9327H133.951V72.9452H129.971V78.2623H134.06V77.2749L131.185 77.285Z" fill="white"/>
<path d="M142.992 72.9553H140.706V78.2724H141.928V76.8064H142.992C143.409 76.8164 143.824 76.7379 144.209 76.576C144.534 76.4375 144.811 76.2048 145.004 75.9076C145.186 75.598 145.283 75.2446 145.283 74.8847C145.283 74.5247 145.186 74.1714 145.004 73.8618C144.809 73.5658 144.533 73.3335 144.209 73.1933C143.825 73.0285 143.41 72.9482 142.992 72.9579V72.9553ZM142.924 75.8038H141.918V73.958H142.924C143.222 73.9369 143.518 74.021 143.762 74.196C143.858 74.2806 143.935 74.3865 143.984 74.5055C144.034 74.6245 144.056 74.7533 144.048 74.8821C144.056 75.0102 144.034 75.1384 143.984 75.2565C143.934 75.3746 143.858 75.4796 143.762 75.5632C143.518 75.7382 143.222 75.8224 142.924 75.8012V75.8038Z" fill="white"/>
<path d="M157.704 78.2724V72.9553H156.698L154.751 76.2469L152.775 72.9553H151.769V78.2724H152.9V75.1505L154.455 77.7103H154.998L156.552 75.0898V78.2724H157.704Z" fill="white"/>
<path d="M168.718 78.2724H170.001L167.64 72.9553H166.432L164.079 78.2724H165.336L165.804 77.133H168.241L168.718 78.2724ZM166.204 76.1988L167.041 74.1732L167.879 76.1988H166.204Z" fill="white"/>
<path fill-rule="evenodd" clip-rule="evenodd" d="M35.4847 28.611C35.4847 28.611 34.5307 29.4759 32.0257 30.4841C31.1799 30.8245 30.1574 31.1813 28.9351 31.5266C26.3024 32.2703 22.7431 32.9609 18.0275 33.321C15.8721 33.4856 13.4751 33.5812 10.8146 33.5812C12.3912 34.6943 14.6494 35.8339 17.4409 36.6356C18.7089 36.9997 20.0868 37.2941 21.561 37.4846C23.0012 37.6708 24.5331 37.7578 26.1439 37.7139C28.5183 37.6491 31.0639 37.2997 33.7395 36.5638C38.8218 31.7025 35.4847 28.611 35.4847 28.611Z" fill="white"/>
<path d="M32.0257 30.4841C34.5307 29.4759 35.4847 28.611 35.4847 28.611C35.4847 28.611 38.8218 31.7025 33.7395 36.5638C31.0639 37.2997 28.5183 37.6491 26.1439 37.7139C26.6115 37.7283 27.0023 37.7366 27.3263 37.7411C32.0239 37.3191 36.1004 36.1797 39.5557 34.323C43.2156 32.3515 46.0045 29.8085 47.9224 26.6943C49.8296 23.6198 50.8275 20.0621 50.7994 16.4374C50.8443 13.4942 50.0876 10.5949 48.6115 8.05414C47.1529 5.57791 44.9952 3.6165 42.1384 2.16992C39.2816 0.723343 35.8053 5.28287e-05 31.7096 5.28287e-05C31.4355 5.28287e-05 31.1513 5.28283e-05 30.8721 0.0127125C30.8088 0.00370225 30.745 -0.00052944 30.681 5.28287e-05C11.4403 5.28287e-05 0.943595 13.2294 0.254541 16.4551C-0.0104541 17.6721 0.327639 18.5839 0.739792 19.6954C1.34458 21.3264 2.24881 23.3749 1.36105 27.4741C1.30347 27.74 1.2506 28.0058 1.19748 28.2729L1.15484 28.4869L0.717263 31.0163C0.226526 34.3974 -0.0130436 37.8106 0.000547254 41.2276C-0.00112927 45.9589 0.673674 49.9467 2.02496 53.191C3.37624 56.4352 5.17431 58.8465 7.41919 60.4247C9.56377 61.9712 12.1371 62.7993 14.775 62.7921C19.6134 62.7921 22.5775 59.7462 23.6673 53.6543L26.2424 39.1413C24.5928 38.67 22.9686 38.1131 21.3763 37.4727C21.4383 37.4768 21.4999 37.4807 21.561 37.4846C20.0868 37.2941 18.7089 36.9997 17.4409 36.6356C17.4282 36.7048 17.4155 36.7745 17.4026 36.8448L17.2621 37.612L15.1044 50.0387C14.5377 53.0635 13.7095 54.576 12.6198 54.576C11.8352 54.576 11.0179 53.9953 10.1679 52.834C9.31785 51.6727 8.62042 50.0396 8.07555 47.9347C7.49962 45.5681 7.22498 43.1373 7.25824 40.7009C7.25824 37.9784 7.41757 35.3811 7.73623 32.9092C7.50097 32.9685 7.25466 33 7.00101 33C5.34415 33 4.00101 31.6569 4.00101 30C4.00101 28.3431 5.34415 27 7.00101 27C7.64287 27 8.23766 27.2016 8.72551 27.5449C9.07756 26.1051 9.49295 24.7151 9.9717 23.3749C11.7807 18.311 14.3525 14.3544 17.6871 11.5052C21.0217 8.6559 24.9339 7.23126 29.4236 7.23126C33.3953 7.23295 36.3293 8.14276 38.2254 9.96069C40.1148 11.7803 41.0621 14.1367 41.0671 17.0299C41.0671 21.6904 37.9635 27.7509 32.0257 30.4841Z" fill="white"/>
<path d="M20.7929 17.2856C19.7467 23.028 18.9403 27.6091 18.3736 31.0289C18.2624 31.8408 18.1486 32.5855 18.0275 33.321C22.7431 32.9609 26.3024 32.2703 28.9351 31.5266C28.4418 31.6374 27.934 31.727 27.4118 31.7936L27.6633 31.034L29.826 18.2806C29.9233 17.7164 29.9671 17.1442 29.9568 16.5716C29.9568 15.3883 29.6407 14.5224 29.0087 13.9738C28.3766 13.4252 27.3414 13.1509 25.9029 13.1509C24.729 13.1208 23.5739 13.4511 22.5909 14.0979C21.6538 14.7326 21.0544 15.7951 20.7929 17.2856Z" fill="white"/>
<path fill-rule="evenodd" clip-rule="evenodd" d="M158.89 63.296C160.449 63.296 162.067 62.6554 163.744 61.3742C165.511 60.0066 167.106 58.4277 168.494 56.6724C169.185 55.8672 169.53 54.7329 169.53 53.2695C169.563 52.6386 169.421 52.0109 169.12 51.4566C169.011 51.2553 168.849 51.0877 168.653 50.9718C168.456 50.8558 168.232 50.7959 168.004 50.7983C167.718 50.8061 167.437 50.8784 167.183 51.0099C166.928 51.1413 166.706 51.3286 166.533 51.5579C165.298 53.0959 163.969 54.5538 162.552 55.9229C161.566 56.8193 160.728 57.2674 160.037 57.2674C159.833 57.2718 159.63 57.2283 159.446 57.1404C159.261 57.0525 159.099 56.9226 158.973 56.761C158.685 56.3853 158.54 55.9184 158.563 55.4444C158.563 53.7987 158.982 50.8709 159.821 46.6611C160.366 43.7696 160.638 41.9399 160.638 41.1719C160.638 39.8907 159.748 39.2501 157.967 39.2501C157.162 39.2478 156.359 39.3215 155.568 39.4704C155.387 38.6653 155.16 38.1074 154.887 37.7968C154.613 37.4862 154.077 37.3309 153.277 37.3309C150.767 37.3309 148.395 38.1268 146.16 39.7185C143.888 41.353 142.044 43.5192 140.789 46.0307C139.794 47.9477 139.153 50.0307 138.898 52.1782C137.818 53.4969 136.656 54.7444 135.417 55.9128C134.416 56.8091 133.553 57.2573 132.827 57.2573C132.604 57.2621 132.383 57.212 132.184 57.1114C131.984 57.0108 131.812 56.8627 131.683 56.68C131.365 56.2026 131.212 55.6331 131.248 55.0596C131.248 53.9691 131.761 51.0785 132.787 46.3877C133.695 42.2893 134.15 39.7827 134.15 38.8678C134.14 38.3192 133.972 37.9445 133.647 37.7436C133.321 37.5428 132.74 37.4423 131.901 37.4423C130.703 37.4423 129.803 37.6803 129.203 38.1563C128.603 38.6324 128.158 39.4189 127.868 40.5161C127.175 43.1848 126.648 45.3791 126.286 47.0991H119.307C119.561 45.3791 119.833 43.9148 120.125 42.7062C120.67 40.6571 120.942 39.3396 120.942 38.7539C120.944 38.2407 120.799 37.893 120.507 37.7107C120.215 37.5284 119.706 37.4373 118.98 37.4373C117.591 37.439 116.536 37.6862 115.817 38.1791C115.098 38.672 114.57 39.4493 114.235 40.511C113.151 44.01 112.506 47.6318 112.316 51.292C112.227 51.371 112.143 51.4556 112.065 51.5452C110.393 53.559 109.057 55.014 108.056 55.9103C107.055 56.8066 106.192 57.2547 105.466 57.2547C105.243 57.2595 105.022 57.2094 104.823 57.1088C104.623 57.0082 104.451 56.8602 104.322 56.6775C104.004 56.2 103.851 55.6306 103.887 55.057C103.887 53.9599 104.395 51.0684 105.413 46.3826C106.322 42.2842 106.776 39.7776 106.776 38.8628C106.766 38.3142 106.598 37.9394 106.273 37.7386C105.948 37.5377 105.366 37.4373 104.528 37.4373C103.329 37.4373 102.43 37.6753 101.83 38.1513C101.229 38.6273 100.784 39.4139 100.494 40.511C99.7716 43.3135 98.8686 46.0657 97.7908 48.75C96.8637 50.9831 95.991 52.6483 95.1729 53.7455C94.3547 54.8427 93.6732 55.3912 93.1284 55.3912C92.9542 55.4033 92.7802 55.366 92.626 55.2837C92.4718 55.2014 92.3435 55.0772 92.2557 54.9254C92.0747 54.6131 91.9841 54.0729 91.9841 53.3049C91.9841 52.0238 92.3479 49.4614 93.0755 45.618C93.2935 44.5157 93.5844 43.2894 93.9482 41.9391C94.3489 40.2562 94.5492 39.2679 94.5492 38.9742C94.5646 38.7593 94.5309 38.5438 94.4507 38.3441C94.3705 38.1444 94.2459 37.9658 94.0865 37.8221C93.778 37.5656 93.2239 37.4373 92.4242 37.4373C91.0076 37.4373 89.9715 37.6753 89.3159 38.1513C88.6604 38.6273 88.1516 39.4139 87.7895 40.511C87.0015 42.8784 86.4012 45.3048 85.9939 47.7676C85.8296 48.8209 85.7022 49.918 85.6116 51.0591C85.4423 51.1313 85.2784 51.216 85.1213 51.3123C82.5394 53.0002 79.8494 54.9414 77.0513 57.1357L77.5693 53.8138C77.732 52.7707 77.8862 51.8102 78.0321 50.9325C78.7949 46.3278 79.2492 43.4582 79.3951 42.3239C79.4365 41.9778 79.455 41.6293 79.4504 41.2808C79.4504 40.4756 79.2593 39.9355 78.877 39.6603C78.4948 39.3852 77.8493 39.2476 76.9406 39.2476C76.1356 39.2383 75.3316 39.3121 74.5415 39.4679C74.3605 38.6627 74.1333 38.1049 73.86 37.7943C73.5867 37.4837 73.0502 37.3284 72.2505 37.3284C69.7408 37.3284 67.3685 38.1243 65.1337 39.716C62.8607 41.3519 61.0171 43.5199 59.7621 46.0332C59.7441 46.0681 59.7276 46.1037 59.711 46.1396L59.6912 46.1822C59.684 46.1975 59.6767 46.2128 59.669 46.2282L59.4352 46.2788C57.4386 46.8372 55.3943 47.2051 53.3292 47.3777C53.0375 44.5588 52.0467 42.1889 50.3568 40.268C48.6668 38.3471 46.4404 37.3866 43.6775 37.3866C41.4877 37.3675 39.3421 38.0076 37.5162 39.2248C35.6259 40.4929 34.1168 42.2583 33.1531 44.3292C32.0985 46.5067 31.5713 48.9863 31.5713 51.768C31.5539 53.7364 31.9632 55.6849 32.7708 57.4776C33.532 59.1886 34.751 60.6527 36.2915 61.7059C37.8373 62.7676 39.6999 63.2985 41.8794 63.2985C44.4646 63.2968 46.7749 62.3718 48.8102 60.5235C50.8455 58.6752 52.2085 56.2141 52.8992 53.1404C54.5669 53.0763 56.2249 52.8533 57.8508 52.4744C57.7857 53.0969 57.7521 53.7222 57.7503 54.3481C57.7469 57.0201 58.4175 59.1799 59.7621 60.8273C61.1067 62.4748 62.9064 63.2985 65.1613 63.2985C66.2412 63.2696 67.2974 62.9736 68.2368 62.4367C69.1762 61.8998 69.9699 61.1384 70.548 60.2196L70.2211 62.3617C64.6232 66.7166 60.8066 70.3854 58.7713 73.368C56.736 76.3506 55.7183 79.1417 55.7183 81.7411C55.7183 83.608 56.3001 85.1179 57.4636 86.2708C58.6271 87.4236 60.136 88.0001 61.9902 88.0001C65.4438 88.0017 68.2881 85.8336 70.5229 81.4955C72.7577 77.1575 74.5658 71.2007 75.9473 63.6251L85.5563 57.0649C85.7182 58.4796 86.2122 59.8352 86.9973 61.0197C88.0334 62.5389 89.3696 63.2985 91.0059 63.2985C92.4225 63.3019 93.7487 62.636 94.9843 61.3008C96.2199 59.9656 97.147 58.0532 97.7656 55.5634C97.7656 58.0194 98.1747 59.9226 98.9929 61.2729C99.811 62.6233 101.093 63.2985 102.838 63.2985C105.023 63.3325 107.165 62.6842 108.969 61.4426C110.227 60.5643 111.393 59.5599 112.45 58.4448C112.548 59.3552 112.752 60.2509 113.058 61.1134C113.621 62.5769 114.594 63.3086 115.975 63.3086C116.812 63.3086 117.412 63.0985 117.776 62.6782C118.14 62.2562 118.358 61.5886 118.43 60.6754C118.502 59.7622 118.556 58.1705 118.593 55.9002V54.7481C118.591 54.3447 118.628 53.6307 118.701 52.6061C119.937 52.6787 122.154 52.715 125.353 52.715C125.187 53.8971 125.096 55.0887 125.081 56.2825C125.081 58.6237 125.463 60.38 126.226 61.5514C126.988 62.7229 128.315 63.3086 130.206 63.3086C132.363 63.3421 134.476 62.6891 136.242 61.4426C137.412 60.6065 138.511 59.675 139.529 58.6574C139.835 59.4413 140.259 60.1731 140.786 60.8273C142.131 62.4748 143.931 63.2985 146.185 63.2985C149.057 63.2985 151.438 61.7607 153.327 58.6853C153.759 59.9985 154.542 61.1663 155.591 62.0604C156.51 62.854 157.679 63.2921 158.89 63.296ZM61.0723 80.5308C61.0723 79.0674 61.6901 77.3659 62.9257 75.4265C64.1613 73.487 66.179 71.3104 68.9788 68.8966C67.9243 73.6921 66.8245 77.187 65.6794 79.3813C64.5343 81.5757 63.5075 82.6729 62.5988 82.6729C62.367 82.6909 62.1347 82.644 61.9278 82.5371C61.721 82.4303 61.5476 82.2678 61.4269 82.0677C61.1738 81.5968 61.0513 81.0659 61.0723 80.5308ZM43.5693 44.9597C43.5646 46.3292 43.8727 47.6814 44.4696 48.912C45.047 50.1317 45.9378 51.1737 47.0498 51.9301C46.7581 53.7227 46.1856 55.095 45.3322 56.047C44.9629 56.492 44.5015 56.8504 43.9802 57.097C43.4589 57.3437 42.8904 57.4727 42.3145 57.475C41.2599 57.475 40.342 56.945 39.5608 55.885C38.7795 54.8249 38.3889 53.288 38.3889 51.2743C38.3889 48.712 38.8709 46.7261 39.8349 45.3167C40.7989 43.9072 42.0077 43.2025 43.4612 43.2025H43.7328C43.6244 43.7819 43.5697 44.3701 43.5693 44.9597ZM65.7071 48.5803C66.3731 46.8905 67.4179 45.3784 68.76 44.1621C70.0308 43.0464 71.4123 42.4725 72.9044 42.4404L71.1591 51.8288C70.8305 53.7328 70.2857 55.1971 69.5245 56.2217C68.7634 57.2463 67.9637 57.7586 67.1254 57.7586C66.7702 57.7761 66.4157 57.7109 66.0895 57.5682C65.7633 57.4255 65.4741 57.2091 65.2443 56.9357C64.79 56.3821 64.5628 55.5381 64.5628 54.4038C64.5518 52.405 64.941 50.4244 65.7071 48.5803ZM146.731 48.5803C147.4 46.885 148.455 45.3716 149.812 44.1621C150.971 43.0986 152.467 42.4848 154.034 42.4303L152.022 52.5327C151.695 54.1126 151.168 55.3786 150.44 56.3306C149.713 57.2826 148.949 57.7586 148.15 57.7586C147.794 57.7761 147.44 57.7109 147.114 57.5682C146.787 57.4255 146.498 57.2091 146.268 56.9357C145.814 56.3821 145.587 55.5381 145.587 54.4038C145.576 52.405 145.965 50.4244 146.731 48.5803ZM32.0257 30.4841C31.1799 30.8245 30.1574 31.1813 28.9351 31.5266C30.0381 31.2787 31.0687 30.9246 32.0257 30.4841ZM18.0275 33.321C15.8721 33.4856 13.4751 33.5812 10.8146 33.5812C12.3912 34.6943 14.6494 35.8339 17.4409 36.6356C17.6615 35.4321 17.8522 34.3861 18.0275 33.321ZM83.9509 74.0736C84.187 73.9646 84.4441 73.9095 84.7038 73.9124C85.0511 73.8966 85.3929 74.0041 85.6695 74.2162C85.9389 74.4385 86.1252 74.7466 86.1976 75.0897H84.0701V76.0316H86.2102C86.1455 76.3892 85.9608 76.7137 85.6871 76.9507C85.4113 77.1808 85.0619 77.3022 84.7038 77.2925C84.4441 77.2953 84.187 77.2403 83.9509 77.1313C83.7148 77.0223 83.5056 76.862 83.3383 76.662L82.5612 77.3912C82.8122 77.7 83.1341 77.9425 83.4992 78.0977C83.8969 78.2674 84.3247 78.3535 84.7566 78.3509C85.2477 78.3589 85.7323 78.2376 86.1624 77.9989C86.5711 77.7691 86.9088 77.43 87.1381 77.0191C87.3708 76.5836 87.4926 76.0969 87.4926 75.6024C87.4926 75.108 87.3708 74.6212 87.1381 74.1858C86.9088 73.7749 86.5711 73.4358 86.1624 73.2059C85.7323 72.9672 85.2477 72.8459 84.7566 72.854C84.3247 72.8514 83.8969 72.9375 83.4992 73.1072C83.1342 73.2625 82.8122 73.5049 82.5612 73.8136L83.3383 74.5428C83.5056 74.3428 83.7148 74.1826 83.9509 74.0736ZM96.1868 75.105H95.3116V72.9553H94.1045V78.2724H95.3116V76.1304H96.1566L97.5293 78.2724H98.9174L97.1369 75.5227L98.8646 72.9553L97.575 72.9553L96.1868 75.105ZM107.642 72.8646C107.128 72.8646 106.621 72.9867 106.163 73.2211H106.17C105.739 73.4465 105.379 73.7873 105.129 74.2061C104.884 74.6348 104.756 75.1206 104.756 75.6151C104.756 76.1096 104.884 76.5954 105.129 77.0241C105.377 77.4409 105.735 77.7807 106.163 78.0065C106.621 78.2409 107.128 78.3631 107.642 78.3631C108.157 78.3631 108.664 78.2409 109.122 78.0065C109.553 77.7752 109.913 77.4304 110.165 77.009C110.416 76.5875 110.548 76.1053 110.548 75.6138C110.548 75.1223 110.416 74.6401 110.165 74.2187C109.913 73.7972 109.553 73.4524 109.122 73.2211C108.664 72.9867 108.157 72.8646 107.642 72.8646ZM106.801 77.0975C106.552 76.9561 106.346 76.7474 106.208 76.4949C106.065 76.2217 105.99 75.9176 105.99 75.6088C105.99 75.3 106.065 74.9958 106.208 74.7226C106.346 74.4701 106.552 74.2614 106.801 74.12C107.06 73.9773 107.351 73.9025 107.646 73.9025C107.942 73.9025 108.232 73.9773 108.491 74.12C108.74 74.2619 108.944 74.4705 109.082 74.7226C109.225 74.9958 109.3 75.3 109.3 75.6088C109.3 75.9176 109.225 76.2217 109.082 76.4949C108.944 76.747 108.74 76.9556 108.491 77.0975C108.232 77.2403 107.942 77.3151 107.646 77.3151C107.351 77.3151 107.06 77.2403 106.801 77.0975ZM119.504 72.7274V73.2743H119.514C118.618 73.33 117.93 73.5554 117.449 73.9503C117.224 74.1603 117.044 74.4149 116.921 74.6981C116.798 74.9813 116.735 75.2871 116.735 75.5961C116.735 75.9051 116.798 76.2109 116.921 76.4941C117.044 76.7773 117.224 77.0319 117.449 77.2419C117.923 77.6436 118.608 77.8698 119.504 77.9204V78.5053H120.628V77.928C121.518 77.8824 122.2 77.6588 122.675 77.257C122.9 77.0453 123.079 76.7893 123.202 76.5049C123.324 76.2205 123.387 75.9137 123.387 75.6037C123.387 75.2937 123.324 74.9869 123.202 74.7025C123.079 74.4181 122.9 74.1621 122.675 73.9503C122.2 73.5452 121.518 73.3174 120.628 73.2667V72.7274H119.504ZM121.83 76.5582C121.483 76.8144 121.067 76.9584 120.638 76.9709V74.2466C121.694 74.3377 122.222 74.7884 122.222 75.5986C122.232 75.778 122.203 75.9574 122.135 76.1235C122.067 76.2897 121.963 76.4383 121.83 76.5582ZM119.514 74.239V76.9709C118.457 76.8562 117.93 76.3979 117.932 75.5961C117.921 75.4183 117.95 75.2402 118.017 75.0753C118.084 74.9103 118.187 74.7629 118.319 74.6441C118.668 74.3918 119.084 74.2507 119.514 74.239ZM131.195 73.9326H133.961V72.9452L129.971 72.9452V78.2623L134.069 78.2622V77.2748H131.195V76.0443H133.647V75.0872H131.195V73.9326ZM145.004 73.8415C144.809 73.5455 144.533 73.3132 144.209 73.173V73.1908C143.826 73.019 143.411 72.9318 142.992 72.935H140.706V78.2521H141.928V76.7861H142.992C143.409 76.7961 143.824 76.7176 144.209 76.5557C144.534 76.4172 144.81 76.1845 145.004 75.8873C145.186 75.5777 145.282 75.2243 145.282 74.8644C145.282 74.5044 145.186 74.1511 145.004 73.8415ZM141.928 75.7784V73.9326L142.934 73.9352C143.232 73.914 143.528 73.9982 143.771 74.1732C143.868 74.2578 143.944 74.3637 143.994 74.4826C144.044 74.6016 144.066 74.7305 144.058 74.8593C144.065 74.9874 144.044 75.1155 143.994 75.2337C143.944 75.3518 143.868 75.4568 143.771 75.5404C143.528 75.7154 143.232 75.7995 142.934 75.7784H141.928ZM156.685 72.9426L154.738 76.2341L152.759 72.9553H151.753V78.2724L152.9 78.2724V75.1505L154.447 77.6976H154.99L156.544 75.077V78.2597H157.691V72.9426H156.685ZM170.001 78.2597L167.639 72.9426H166.427L164.073 78.2597H165.331L165.798 77.1203H168.25L168.718 78.2597H170.001ZM167.028 74.1605L167.865 76.186H166.191L167.028 74.1605Z" fill="white"/>
<path d="M7 30.5C7 31.0523 6.55228 31.5 6 31.5C5.44772 31.5 5 31.0523 5 30.5C5 29.9477 5.44772 29.5 6 29.5C6.55228 29.5 7 29.9477 7 30.5Z" fill="white"/>
</svg>
