<svg width="116" height="145" viewBox="0 0 116 145" fill="none" xmlns="http://www.w3.org/2000/svg">
<path d="M107.536 47.175C107.536 71.8532 87.1096 91.8589 61.9123 91.8589C36.7149 91.8589 16.2885 71.8532 16.2885 47.175C16.2885 22.4968 36.7149 2.49121 61.9123 2.49121C87.1096 2.49121 107.536 22.4968 107.536 47.175Z" fill="#5BEE61"/>
<path d="M62.5805 102.792C62.5805 95.9125 48.1559 89.2788 41.8843 87.4361L62.5805 85.5934V102.792Z" fill="#5BEE61"/>
<path d="M62.5805 102.792C62.5805 95.9125 74.4964 89.893 80.768 88.0503L62.5805 85.5934V102.792Z" fill="#5BEE61"/>
<path d="M36.6035 34.6381L48.6111 33.0455L47.5256 32.7576C46.2566 32.421 45.0517 31.8795 43.9589 31.1549L43.808 31.0548L39.6054 30.3913L36.6035 34.6381Z" fill="#40454A"/>
<path fill-rule="evenodd" clip-rule="evenodd" d="M75.6086 34.1735C75.6086 34.1735 74.463 35.2065 71.455 36.4108C70.4395 36.8174 69.2117 37.2434 67.744 37.6559C64.5829 38.5441 60.309 39.3691 54.6467 39.7992C52.0585 39.9958 49.1803 40.1099 45.9857 40.1099C47.8789 41.4395 50.5904 42.8007 53.9423 43.7582C55.4648 44.1931 57.1194 44.5447 58.8895 44.7723C60.6188 44.9946 62.4583 45.0986 64.3925 45.0461C67.2435 44.9687 70.3003 44.5514 73.5129 43.6724C79.6156 37.866 75.6086 34.1735 75.6086 34.1735Z" fill="#40454A"/>
<path d="M71.455 36.4108C74.463 35.2065 75.6086 34.1735 75.6086 34.1735C75.6086 34.1735 79.6156 37.866 73.5129 43.6724C70.3003 44.5514 67.2435 44.9687 64.3925 45.0461C64.954 45.0634 65.4232 45.0733 65.8122 45.0786C71.453 44.5746 76.3478 43.2137 80.4968 40.996C84.8914 38.6411 88.2402 35.6038 90.5432 31.8841C92.8333 28.2119 94.0315 23.9625 93.9977 19.6331C94.0517 16.1177 93.1431 12.6547 91.3706 9.62001C89.6192 6.66235 87.0284 4.31961 83.598 2.59179C80.1677 0.863973 75.9935 6.30995e-05 71.0755 6.30995e-05C70.7464 6.30995e-05 70.4051 6.30999e-05 70.07 0.015184C69.9939 0.00442203 69.9172 -0.000632372 69.8405 6.30995e-05C46.7371 6.30995e-05 34.133 15.8014 33.3056 19.6543C32.9874 21.1079 33.3934 22.1969 33.8883 23.5245C34.6145 25.4726 35.7003 27.9194 34.6343 32.8155C34.5652 33.1331 34.5017 33.4506 34.4379 33.7697L34.3867 34.0252L33.8613 37.0464C33.272 41.0848 32.9843 45.1616 33.0007 49.2429C32.9986 54.8941 33.8089 59.6572 35.4315 63.5322C37.054 67.4072 39.2131 70.2873 41.9086 72.1723C44.4838 74.0194 47.5737 75.0086 50.7411 74.9999C56.551 74.9999 60.1101 71.3619 61.4186 64.0857L64.5108 46.751C62.5301 46.1882 60.5798 45.523 58.6677 44.7581C58.7423 44.7629 58.8162 44.7676 58.8895 44.7723C57.1194 44.5447 55.4648 44.1931 53.9423 43.7582C53.9271 43.8408 53.9117 43.9241 53.8963 44.008L53.7276 44.9244L51.1367 59.7671C50.4563 63.38 49.4618 65.1865 48.1533 65.1865C47.2112 65.1865 46.2298 64.4929 45.2091 63.1058C44.1885 61.7187 43.351 59.7681 42.6968 57.254C42.0052 54.4273 41.6755 51.524 41.7154 48.6139C41.7154 45.362 41.9067 42.2598 42.2893 39.3074C42.0068 39.3782 41.7111 39.4158 41.4065 39.4158C39.417 39.4158 37.8042 37.8115 37.8042 35.8325C37.8042 33.8535 39.417 32.2493 41.4065 32.2493C42.1772 32.2493 42.8914 32.49 43.4772 32.9001C43.8999 31.1803 44.3987 29.5201 44.9736 27.9194C47.1457 21.871 50.2338 17.1452 54.2379 13.742C58.242 10.3388 62.9395 8.63715 68.3306 8.63715C73.0997 8.63916 76.6226 9.72585 78.8994 11.8972C81.1682 14.0706 82.3056 16.8851 82.3117 20.3408C82.3117 25.9073 78.5849 33.1462 71.455 36.4108Z" fill="#40454A"/>
<path d="M57.9672 20.6462C56.711 27.5051 55.7427 32.9768 55.0623 37.0615C54.9287 38.0312 54.7921 38.9206 54.6467 39.7992C60.309 39.3691 64.5829 38.5441 67.744 37.6559C67.1517 37.7882 66.5419 37.8953 65.9149 37.9748L66.2169 37.0675L68.8138 21.8347C68.9307 21.1608 68.9832 20.4773 68.9708 19.7934C68.9708 18.3801 68.5913 17.3458 67.8324 16.6906C67.0735 16.0353 65.8304 15.7077 64.1031 15.7077C62.6936 15.6717 61.3065 16.0662 60.1262 16.8387C59.0009 17.5968 58.2812 18.866 57.9672 20.6462Z" fill="#40454A"/>
<path fill-rule="evenodd" clip-rule="evenodd" d="M71.455 36.4108C70.4395 36.8174 69.2117 37.2434 67.744 37.6559C69.0685 37.3598 70.306 36.9369 71.455 36.4108ZM54.6467 39.7992C52.0585 39.9958 49.1803 40.1099 45.9857 40.1099C47.8789 41.4395 50.5904 42.8007 53.9423 43.7582C54.2072 42.3207 54.4361 41.0713 54.6467 39.7992Z" fill="#40454A"/>
<path d="M40.9015 36.6381C40.9015 37.2978 40.3639 37.8325 39.7008 37.8325C39.0376 37.8325 38.5 37.2978 38.5 36.6381C38.5 35.9784 39.0376 35.4437 39.7008 35.4437C40.3639 35.4437 40.9015 35.9784 40.9015 36.6381Z" fill="#40454A"/>
<path d="M7.6 121.7L10.98 114.3H14.32L8.94 125.12C8.34 126.32 7.67333 127.187 6.94 127.72C6.22 128.254 5.36 128.52 4.36 128.52C3.30667 128.52 2.3 128.247 1.34 127.7L2.54 125.44C3.04667 125.747 3.6 125.9 4.2 125.9C4.89333 125.9 5.48 125.527 5.96 124.78L0.36 114.3H3.8L7.6 121.7ZM17.3275 117.58H25.9475V128.3H22.9075V120.18H20.1875C20.1875 121.594 20.1342 122.787 20.0275 123.76C19.9208 124.734 19.7742 125.527 19.5875 126.14C19.4008 126.754 19.1408 127.227 18.8075 127.56C18.4742 127.894 18.1142 128.12 17.7275 128.24C17.3408 128.36 16.8608 128.42 16.2875 128.42C15.7408 128.42 15.2275 128.36 14.7475 128.24L14.9475 125.78C15.1875 125.82 15.4008 125.84 15.5875 125.84C15.9075 125.84 16.1608 125.767 16.3475 125.62C16.5342 125.46 16.7075 125.114 16.8675 124.58C17.0408 124.034 17.1608 123.2 17.2275 122.08C17.2942 120.947 17.3275 119.447 17.3275 117.58ZM28.6647 128.3V117.58H31.7047V121.12H33.9047C35.198 121.12 36.2314 121.42 37.0047 122.02C37.7914 122.62 38.1847 123.5 38.1847 124.66C38.1847 125.794 37.818 126.687 37.0847 127.34C36.3647 127.98 35.358 128.3 34.0647 128.3H28.6647ZM33.6047 123.42H31.7047V125.9H33.6247C34.6247 125.9 35.1247 125.474 35.1247 124.62C35.1247 124.247 34.9914 123.954 34.7247 123.74C34.4714 123.527 34.098 123.42 33.6047 123.42ZM49.4342 117.58V128.3H46.3942V124.86H44.7542L42.4942 128.3H38.9742L41.7142 124.36C40.2209 123.787 39.4742 122.72 39.4742 121.16C39.4742 120.067 39.8542 119.2 40.6142 118.56C41.3742 117.907 42.4409 117.58 43.8142 117.58H49.4342ZM44.3342 122.66H46.3942V119.96H44.3142C43.7542 119.96 43.3209 120.08 43.0142 120.32C42.7076 120.547 42.5542 120.88 42.5542 121.32C42.5542 121.747 42.7076 122.08 43.0142 122.32C43.3342 122.547 43.7742 122.66 44.3342 122.66ZM61.9808 117.58V128.3H58.9408V124.2H55.2008V128.3H52.1608V117.58H55.2008V121.7H58.9408V117.58H61.9808ZM74.0998 126.92C72.9932 128 71.6132 128.54 69.9598 128.54C68.3065 128.54 66.9265 128.007 65.8198 126.94C64.7265 125.86 64.1798 124.534 64.1798 122.96C64.1798 121.4 64.7332 120.08 65.8398 119C66.9598 117.92 68.3465 117.38 69.9998 117.38C71.6532 117.38 73.0265 117.92 74.1198 119C75.2265 120.067 75.7798 121.387 75.7798 122.96C75.7798 124.52 75.2198 125.84 74.0998 126.92ZM69.9998 125.92C70.8398 125.92 71.5132 125.64 72.0198 125.08C72.5265 124.507 72.7798 123.8 72.7798 122.96C72.7798 122.147 72.5132 121.454 71.9798 120.88C71.4598 120.294 70.7865 120 69.9598 120C69.1198 120 68.4465 120.287 67.9398 120.86C67.4332 121.42 67.1798 122.12 67.1798 122.96C67.1798 123.774 67.4398 124.474 67.9598 125.06C68.4932 125.634 69.1732 125.92 69.9998 125.92ZM77.9811 117.58H83.8611C84.9544 117.58 85.8211 117.82 86.4611 118.3C87.1144 118.78 87.4411 119.434 87.4411 120.26C87.4411 121.38 86.8744 122.187 85.7411 122.68C87.1411 123.107 87.8411 124.007 87.8411 125.38C87.8411 126.287 87.4811 127 86.7611 127.52C86.0544 128.04 85.0811 128.3 83.8411 128.3H77.9811V117.58ZM80.9811 121.88H83.1211C83.5344 121.88 83.8478 121.78 84.0611 121.58C84.2878 121.38 84.4011 121.12 84.4011 120.8C84.4011 120.52 84.2944 120.287 84.0811 120.1C83.8811 119.914 83.5744 119.82 83.1611 119.82H80.9811V121.88ZM80.9811 125.92H83.3811C84.3011 125.92 84.7611 125.56 84.7611 124.84C84.7611 124.147 84.2744 123.8 83.3011 123.8H80.9811V125.92ZM95.0333 128.54C93.4333 128.54 92.0999 128 91.0333 126.92C89.9799 125.84 89.4533 124.52 89.4533 122.96C89.4533 121.414 89.9866 120.1 91.0533 119.02C92.1199 117.927 93.4599 117.38 95.0733 117.38C96.7933 117.38 98.2133 118.007 99.3333 119.26L97.5533 121.06C96.8066 120.354 95.9733 120 95.0533 120C94.3066 120 93.6866 120.287 93.1933 120.86C92.6999 121.434 92.4533 122.134 92.4533 122.96C92.4533 123.8 92.6999 124.507 93.1933 125.08C93.6999 125.64 94.3599 125.92 95.1733 125.92C96.0133 125.92 96.8333 125.54 97.6333 124.78L99.4133 126.58C98.8266 127.22 98.1999 127.707 97.5333 128.04C96.8666 128.374 96.0333 128.54 95.0333 128.54ZM101.399 128.3V117.58H104.439V121.98L108.279 117.58H111.779L107.839 121.98L112.279 128.3H108.679L105.819 124.22L104.439 125.72V128.3H101.399Z" fill="#40454A"/>
</svg>
