<svg width="1434" height="725" viewBox="0 0 1434 725" fill="none" xmlns="http://www.w3.org/2000/svg">
<g clip-path="url(#clip0)">
<path d="M625.5 227C600.5 260.689 555 301.311 534 316.811C531.5 320.311 536.5 321.5 539 325C541.5 328.5 548.5 333.5 550 334C551.5 334.5 556 334.5 556.5 338C557 341.5 561 345.5 563 345.5C565 345.5 567 343.5 568.5 345.5C570 347.5 567.5 353.5 568.5 355C569.3 356.2 571.833 357.833 573 358.5C573.5 360.333 574.7 364.5 575.5 366.5C576.5 369 577 370 576.5 374.5C576 379 578 376 580.5 377C583 378 581.5 379.5 583.5 388.5C593.9 396.9 610.5 398.333 617.5 398C617.833 396.167 619 392.5 621 392.5C623.5 392.5 625 386 626 384C627 382 626.5 381 630 378C633.5 375 632 371 635 368C637.4 365.6 640 357.333 641 353.5C641.833 353.5 644 353.8 646 355C648.5 356.5 652.5 358.5 657 358.5C661.5 358.5 667 363 670 364C673 365 675.5 364.5 681.5 364C687.5 363.5 685 368 688.5 368H696C701.5 353.333 710.3 319.3 707.5 300.5C704 277 673 236.5 625.5 227Z" fill="#5BEE61"/>
<path d="M869 240.121C873.8 274.521 877 330.121 878 353.621C879.333 353.455 882.1 353.421 882.5 354.621C883 356.121 882.5 355.621 882.5 359.121C882.5 362.621 886.5 362.621 892.5 364.621C898.5 366.621 897 371.621 899.5 372.621C901.5 373.421 907 375.955 909.5 377.121C911.5 378.121 915.7 380.721 916.5 383.121C917.5 386.121 921.5 389.121 936.5 394.621C951.5 400.121 949 403.621 952.5 405.621C956 407.621 961 405.621 962.5 405.121C964 404.621 964 406.621 969 411.121C980.2 394.321 1003.33 397.121 1013.5 400.621C1013.17 397.455 1012.3 390.021 1011.5 385.621C1010.5 380.121 1007.5 376.121 1005 372.621C1002.5 369.121 1000.5 366.121 998 362.621C995.5 359.121 992.5 358.621 987 355.621C981.5 352.621 982 349.621 983 346.121C984 342.621 982.5 342.621 982 339.121C981.5 335.621 983.5 336.621 983.5 332.621C983.5 328.621 980 325.621 981 320.621C982 315.621 985.5 317.121 989.5 313.621C993.5 310.121 990 311.621 990 307.621C990 303.621 990.5 302.121 992 300.121C993.5 298.121 993.5 300.121 995 301.121C996.5 302.121 997.5 299.621 1000 296.621C1002.5 293.621 1001.5 289.621 1002.5 287.121C1003.5 284.621 1006 282.621 1006.5 274.621C1015 260.621 1009 259.121 1016 252.121C1023 245.121 1024 241.621 1023 240.121C1022 238.621 1016 232.621 1016 227.121C1016 221.621 1013.5 218.621 1009 212.621C1004.5 206.621 1004 196.121 1001.5 191.121C999 186.121 996 191.621 995 185.621C994 179.621 991.5 180.121 987 175.121C982.5 170.121 986 173.121 983 168.621C980 164.121 974.5 165.621 971 163.121C967.5 160.621 969.5 159.121 963.5 157.121C957.5 155.121 953 156.121 943.5 152.121C937.5 149.621 922.5 150.121 917 146.121C911.5 142.121 910.5 142.621 902 142.621C893.5 142.621 890 144.121 886.5 146.121C883 148.121 873.5 145.621 869 144.121C864.5 142.621 860.5 141.121 851 142.621C857 162.121 863 197.121 869 240.121Z" fill="#5BEE61"/>
<path d="M651 137.5C642.2 155.1 608.5 226.5 511 291.5C509.8 293.9 512.5 295.167 514 295.5C514.5 296.5 516.1 298.6 518.5 299C521.5 299.5 527 300.5 526 305.5C525 310.5 527.5 307 530.5 311C532.9 314.2 533.333 315.833 533 316.5C555.167 298.667 588.055 275 625 227.5C651.834 193 665 162 672 146C671.5 145.833 667.9 144.2 661.5 141C655.1 137.8 652.167 137.5 651 137.5Z" fill="#5BEE61"/>
<path d="M785 243.5L673 250C709.4 277.6 710.5 311.833 706.5 325.5C725.667 325.667 768.8 325.9 788 325.5C797.6 294.3 790 257.833 785 243.5Z" fill="#5BEE61"/>
<path d="M784.5 245C796.9 280.6 792.333 313.5 788.5 325C808.667 326.167 854.5 326.2 876.5 325C876.5 297 870.833 256 868 239.5C846.333 240.833 799.3 243.8 784.5 245Z" fill="#5BEE61"/>
<path d="M868.5 238.999L672.5 249.999C665.5 241.499 653 236.499 626.5 225.999C647.3 199.999 665.833 161.833 672.5 145.999L696 147.999C697.667 147.333 701.7 146.999 704.5 150.999C708 155.999 712 155.499 719.5 157.999C727 160.499 734.5 154.499 739.5 155.499C744.5 156.499 742.5 158.499 744.5 157.999C746.5 157.499 751.5 152.499 754.5 150.999C757.5 149.499 757 152.499 760 152.499C763 152.499 770 147.499 774 145.999C778 144.499 791.5 144.499 796.5 142.999C801.5 141.499 802.5 142.999 806.5 144.499C810.5 145.999 815 145.999 820 145.999C825 145.999 827 146.999 829.5 145.999C832 144.999 834 144.499 850.5 142.999C860.1 173.799 866.5 219.833 868.5 238.999Z" fill="#5BEE61"/>
<path fill-rule="evenodd" clip-rule="evenodd" d="M511.5 292.146C511.5 290.979 510.8 288.346 508 287.146C506.092 286.328 505.224 285.362 504.587 284.652C504.054 284.06 503.682 283.646 503 283.646C502.818 283.646 502.6 283.653 502.348 283.661C500.523 283.723 496.955 283.843 493 281.646C489.933 279.942 489.885 279.864 488.899 278.245C488.439 277.489 487.773 276.397 486.5 274.646C485.216 272.88 484.034 271.784 483.022 270.845C480.883 268.86 479.5 267.577 479.5 262.146V251.146C479.5 247.546 478.5 245.312 478 244.646C473.166 234.812 463.7 214.046 464.5 209.646C464.755 208.244 465.074 206.875 465.385 205.547C466.292 201.662 467.118 198.126 466 195.146C464.8 191.946 463.167 190.812 462.5 190.646L447 198.646C447.667 202.146 448.9 209.946 448.5 213.146C448.432 213.687 448.383 214.31 448.33 214.983C447.989 219.289 447.486 225.646 441 225.646C434.17 225.646 425.266 216.523 421.465 212.627C421.092 212.245 420.768 211.914 420.5 211.646C417.5 208.646 393 184.146 393 181.646C393 179.646 396.667 181.146 398.5 182.146L420.5 197.896C421.167 196.146 423.2 192.146 426 190.146C428.8 188.146 428.833 187.646 428.5 187.646C425.5 172.312 422.9 138.646 436.5 126.646C453.5 111.646 469 109.646 473.5 111.146C477.1 112.346 481.667 114.646 483.5 115.646C484.333 114.146 486.6 111.146 489 111.146C490.837 111.146 490.987 110.958 491.286 110.583C491.475 110.346 491.725 110.033 492.5 109.646C493.894 108.948 494.803 109.223 495.564 109.454C495.894 109.554 496.197 109.646 496.5 109.646C496.837 109.646 497.913 109.418 499.249 109.136C501.875 108.581 505.506 107.814 506.5 108.146C508 108.646 515.5 108.646 517.5 108.146C518.19 107.973 518.94 107.741 519.75 107.49C521.285 107.015 523.036 106.473 525 106.146C525.969 105.984 526.677 105.718 527.259 105.5C528.479 105.042 529.146 104.792 530.5 106.146C531.058 106.704 531.461 107.224 531.816 107.682C532.734 108.866 533.338 109.646 535.5 109.646C538.5 109.646 541.5 110.646 543 111.146C543.232 111.223 543.476 111.312 543.738 111.408C545.167 111.931 547.119 112.646 550.5 112.646C551.766 112.646 552.782 112.545 553.849 112.44C556.152 112.213 558.691 111.962 564.5 112.646C573 113.646 580.5 115.646 587.5 121.646C592.742 126.138 597.142 132.874 599.442 136.394C600.214 137.575 600.749 138.394 601 138.646C601.373 139.019 601.816 138.765 602.718 138.249C604.233 137.382 607.045 135.773 613 135.146C620.94 134.31 622.244 135.221 624.794 137.002C625.294 137.352 625.843 137.735 626.5 138.146C629.7 140.146 632.167 141.646 633 142.146C633.667 141.479 636.3 139.846 641.5 138.646C646.7 137.446 649.333 137.146 650 137.146C647.333 144.812 637.808 165.302 622 186.646C601 215 560 260.646 511.5 292.146ZM443.5 174.646C444.7 156.046 451.667 152.896 455 153.646C451.8 154.446 453.667 160.979 455 164.146C454 164.979 450.3 168.246 443.5 174.646Z" fill="#5BEE61"/>
<path d="M706.5 325.5C707.3 331.1 699.167 356.167 695 368C696.5 368.5 700.6 369.5 705 369.5C710.5 369.5 711.5 371 713.5 371C715.5 371 718.5 371.5 724.5 374C730.5 376.5 742 376 746 377.5C750 379 752.5 377 756.5 376C760.5 375 763.5 376 766 376C768.5 376 768.5 375 773.5 374C778.5 373 794.5 378 799 377.5C803.5 377 802 376 806.5 374C811 372 813 375 815 376C817 377 848 368.5 850.5 367C853 365.5 855 361.5 858 359C861 356.5 864.5 356 866.5 357C868.5 358 873 356 877.5 354.5C877.9 350.1 877.667 333.333 877.5 325.5H706.5Z" fill="#5BEE61"/>
<path d="M618 398C601.2 398.4 588.333 392.167 584 389H583V391C584.333 408.333 587.3 444.7 588.5 451.5C590 460 584 477 582 483.5C580 490 576 497 573 500C570 503 566 505.5 557.5 517.5C564.7 524.3 581.167 522 588.5 520C589.833 515.667 593.1 506.7 595.5 505.5C598.5 504 602 503 604.5 498.5C607 494 605 479 604.5 459.5C604 440 611.5 413.5 618 398Z" fill="#5BEE61"/>
<path d="M1012.5 400C987.7 393.6 973.833 404 970 410C972.5 410.5 977.5 416 979.5 423.5C981.1 431.5 983.833 453.167 985 463C986.333 472.833 988.8 493.5 988 497.5C987.2 501.5 981.333 510.5 978.5 514.5C978.333 515.167 978.1 517.7 978.5 522.5C988.9 520.9 1002.5 525.833 1008 528.5L1009.5 509.5C1009.67 509 1010.5 508 1012.5 508C1015 508 1016 509 1018 504C1019.6 500 1015 495.333 1012.5 493.5C1013.33 472.833 1014.5 425.2 1012.5 400Z" fill="#5BEE61"/>
<path d="M427.972 196.095C439.142 188.069 440.415 179.748 452.024 178.437C463.633 177.126 466.059 175.435 466.455 180.577" stroke="#121212" stroke-width="3" stroke-miterlimit="10" stroke-linecap="round" stroke-linejoin="round"/>
<path d="M600.749 138.374C600.749 138.374 612.166 159.982 607.697 191.35" stroke="#121212" stroke-width="3" stroke-miterlimit="10" stroke-linecap="round" stroke-linejoin="round"/>
<path d="M591.128 203.658C591.128 203.658 584.907 219.915 587.387 223.992C589.867 228.07 595.596 227.674 601.283 217.571C606.97 207.468 621.519 189.146 625.335 187.069C629.152 184.993 623.123 182.189 619.456 185.999C615.789 189.809 605.485 201.186 599.145 203.658" stroke="#121212" stroke-width="3" stroke-miterlimit="10" stroke-linecap="round" stroke-linejoin="round"/>
<path d="M557.456 152.287C557.456 152.287 593.267 151.688 593.267 184.394C593.267 189.006 592.732 194.561 592.732 194.561" stroke="#121212" stroke-width="3" stroke-miterlimit="10" stroke-linecap="round" stroke-linejoin="round"/>
<path d="M446.816 198.306C446.816 198.306 430.616 203.283 425.437 200.447C420.258 197.611 421.161 194.561 421.161 194.561" stroke="#121212" stroke-width="3" stroke-miterlimit="10" stroke-linecap="round" stroke-linejoin="round"/>
<path d="M546.766 112.153C546.766 112.153 536.269 115.701 527.524 119.645" stroke="#121212" stroke-width="3" stroke-miterlimit="10" stroke-linecap="round" stroke-linejoin="round"/>
<path d="M483.696 115.898L487.438 118.039" stroke="#121212" stroke-width="3" stroke-miterlimit="10" stroke-linecap="round" stroke-linejoin="round"/>
<path d="M443.075 174.761C443.075 174.761 443.481 153.132 456.437 151.751" stroke="#121212" stroke-width="3" stroke-miterlimit="10" stroke-linecap="round" stroke-linejoin="round"/>
<path d="M479.955 248.072C479.955 248.072 481.606 234.828 479.955 225.597C478.303 216.366 478.886 215.43 478.886 215.43" stroke="#121212" stroke-width="3" stroke-miterlimit="10" stroke-linecap="round" stroke-linejoin="round"/>
<path d="M502.938 282.854C512.51 282.854 526.68 275.85 527.524 262.52C528.368 249.19 527.93 241.426 532.334 235.764C536.739 230.103 537.145 218.641 537.145 218.641" stroke="#121212" stroke-width="3" stroke-miterlimit="10" stroke-linecap="round" stroke-linejoin="round"/>
<path d="M554.249 178.901C559.059 182.567 561.197 180.945 565.473 181.577C569.749 182.208 570.818 183.182 570.818 183.182C570.818 183.182 585.864 195.838 587.387 196.56" stroke="#121212" stroke-width="3" stroke-miterlimit="10" stroke-linecap="round" stroke-linejoin="round"/>
<path d="M428.109 188.139C434.678 184.666 455.903 162.988 455.903 162.988C455.903 162.988 450.558 155.936 458.575 151.216C466.593 146.496 469.265 145.33 469.265 145.33C469.265 145.33 475.882 134.531 482.093 128.741C488.304 122.951 512.762 115.626 531.8 134.092C537.3 142.927 541.421 146.935 541.421 146.935C541.421 146.935 561.197 150.408 555.318 153.356C561.528 163.085 558.525 167.708 557.99 168.34C557.456 168.971 592.401 193.752 594.87 198.306C597.339 202.86 584.56 204.096 581.508 203.122C578.456 202.148 577.435 195.175 571.887 192.955C566.339 190.734 558.525 189.744 558.525 189.744" stroke="#121212" stroke-width="3" stroke-miterlimit="10" stroke-linecap="round" stroke-linejoin="round"/>
<path d="M858.373 358.305C857.453 359.819 858.758 360.536 859.442 367.937C860.126 375.337 864.37 373.379 868.528 378.104C872.686 382.829 871.853 380.87 878.683 383.455C885.514 386.04 883.077 384.884 888.304 386.131C893.531 387.377 894.034 382.208 900.597 386.666C907.161 391.123 910.603 388.094 911.287 392.017C911.971 395.939 916.482 398.888 916.098 407" stroke="#121212" stroke-width="3" stroke-miterlimit="10" stroke-linecap="round" stroke-linejoin="round"/>
<path d="M619.456 393.088C622.503 392.986 623.091 389.443 625.335 386.666C627.58 383.889 623.892 384.092 628.542 379.71C633.192 375.327 631.375 375.263 633.353 370.078C635.33 364.892 635.384 368.842 637.094 363.121C638.805 357.401 638.324 358.674 639.767 355.63C641.21 352.585 641.905 352.419 641.905 352.419C641.905 352.419 645.272 352.788 650.456 356.7C655.641 360.612 663.979 358.674 669.164 362.586C674.348 366.498 682.686 362.688 686.267 366.332C689.848 369.976 707.54 368.039 710.854 370.078C714.167 372.116 717.161 369.377 723.147 373.288C729.133 377.2 739.075 374.728 745.061 377.034C751.047 379.34 758.584 374.193 765.372 375.429C772.16 376.665 768.472 371.25 783.01 374.894C797.548 378.538 799.739 379.009 803.32 375.429C806.901 371.849 810.963 373.39 814.01 375.429C817.057 377.468 847.8 368.028 850.355 366.867C852.91 365.706 855.818 358.931 857.304 358.84C858.79 358.749 860.094 355.185 865.855 356.165C871.617 357.144 875.059 355.185 876.545 354.559C878.031 353.933 878.534 352.51 879.752 353.489C880.971 354.468 882.275 351.44 882.959 353.489C883.643 355.539 880.671 357.593 883.494 359.911C886.316 362.228 896.172 362.945 896.856 367.402C897.54 371.86 902.586 372.042 903.804 373.823C905.023 375.605 910.87 374.985 912.89 378.104C914.911 381.224 915.413 377.66 917.701 383.455C919.988 389.251 929.31 391.573 931.598 392.552C933.885 393.532 934.922 393.446 942.287 396.298C949.653 399.15 951.758 405.754 955.115 405.93C958.472 406.107 963.25 402.543 965.27 405.93C967.291 409.318 973.288 412.352 973.288 412.352C973.288 412.352 977.328 413.202 980.236 426.8" stroke="#121212" stroke-width="3" stroke-miterlimit="10" stroke-linecap="round" stroke-linejoin="round"/>
<path d="M583.11 388.272C583.004 383.557 581.614 376.665 577.766 375.429C573.917 374.193 578.102 371.731 575.628 367.402C573.153 363.073 576.499 361.564 571.886 358.841C567.274 356.117 568.214 354.34 569.214 348.138C570.213 341.936 563.938 347.651 561.731 345.998C559.523 344.344 556.723 339.892 555.852 335.831C554.98 331.769 553.783 336.681 547.834 332.62C541.885 328.558 540.955 327.585 537.679 322.988C534.402 318.391 531.511 323.368 531.49 315.256C531.49 307.716 525.311 310.83 526.455 306.399C527.566 302.119 524.504 300.09 521.11 299.978C517.716 299.866 513.456 297.238 513.627 295.162C513.798 293.086 511.142 295.986 510.42 291.416C509.698 286.846 507.4 287.424 506.144 285.53C504.888 283.636 501.868 282.854 501.868 282.854" stroke="#121212" stroke-width="3" stroke-miterlimit="10" stroke-linecap="round" stroke-linejoin="round"/>
<path d="M601.283 138.909C601.283 138.909 611.572 131.417 621.059 135.163C630.546 138.909 632.284 141.049 632.284 141.049C632.284 141.049 645.512 132.755 657.405 138.374C669.297 143.992 672.905 146.4 672.905 146.4C672.905 146.4 690.944 146.936 695.353 147.471C699.763 148.006 701.901 146.4 707.112 151.752C712.323 157.103 719.004 160.046 732.767 155.497C746.531 150.949 737.979 163.792 748.802 154.962C759.626 146.133 752.143 155.497 763.233 150.146C774.324 144.795 771.919 146.133 783.009 144.795C794.1 143.457 799.445 141.584 804.924 143.725C810.402 145.865 822.695 146.133 825.234 146.4C827.773 146.668 829.109 144.795 841.269 143.725C853.428 142.655 853.161 139.176 867.459 142.12C881.756 145.063 882.558 146.4 891.511 143.19C900.463 139.979 909.817 140.782 915.563 144.795C921.308 148.808 923.981 147.203 936.942 149.076C949.904 150.949 946.697 155.23 951.908 155.497C957.119 155.765 968.343 154.16 971.15 160.848C973.956 167.537 983.844 162.721 985.046 169.41C986.249 176.099 991.861 174.761 994.133 183.858C996.404 192.955 1001.48 182.521 1005.36 199.377C1009.23 216.233 1016.71 213.557 1016.05 225.062C1015.38 236.567 1029.81 240.045 1020.86 248.072C1011.9 256.099 1016.71 253.958 1010.7 265.731C1004.69 277.503 1009.23 275.898 1004.82 283.389C1000.41 290.881 1004.15 289.543 998.943 297.302C993.732 305.061 995.87 295.162 991.46 301.048C987.051 306.934 995.068 313.088 987.184 315.496C979.3 317.904 980.701 323.475 983.443 329.409C986.185 335.343 980.968 333.374 983.443 341.182C985.917 348.989 979.899 348.09 985.581 352.419C991.262 356.748 999.141 359.06 999.477 364.191C999.814 369.323 1009.56 373.663 1011.24 380.245C1012.91 386.827 1013.37 389.342 1013.37 389.342" stroke="#121212" stroke-width="3" stroke-miterlimit="10" stroke-linecap="round" stroke-linejoin="round"/>
<path d="M881.355 473.89C881.355 473.89 884.675 480.75 904.338 481.916" stroke="#121212" stroke-width="3" stroke-miterlimit="10" stroke-linecap="round" stroke-linejoin="round"/>
<path d="M979.167 521.514C980.124 521.252 983.443 523.12 983.443 523.12C983.443 523.12 988.189 521.777 995.202 524.19C1002.21 526.603 1008.03 528.471 1008.03 528.471" stroke="#121212" stroke-width="3" stroke-miterlimit="10" stroke-linecap="round" stroke-linejoin="round"/>
<path d="M634.956 503.855C635.87 512.294 650.456 514.322 659.543 510.812" stroke="#121212" stroke-width="3" stroke-miterlimit="10" stroke-linecap="round" stroke-linejoin="round"/>
<path d="M557.456 517.769C557.456 517.769 562.266 524.848 588.991 519.374" stroke="#121212" stroke-width="3" stroke-miterlimit="10" stroke-linecap="round" stroke-linejoin="round"/>
<path d="M951.716 403.902C946.371 408.098 940.694 415.338 939.738 417.671C938.621 420.395 926.376 446.326 917.701 463.182C918.903 467.998 916.498 473.082 910.218 473.349C903.938 473.617 905.408 480.306 905.408 480.306C905.408 480.306 904.205 482.179 898.994 485.657C882.467 494.663 872.804 482.981 872.804 482.981C872.804 482.981 877.213 479.68 882.959 472.814C886.567 463.985 893.248 462.379 894.183 459.971C895.119 457.563 911.153 420.641 915.028 411.276C915.693 409.755 916.056 408.12 916.097 406.46" stroke="#121212" stroke-width="3" stroke-miterlimit="10" stroke-linecap="round" stroke-linejoin="round"/>
<path d="M659.008 359.375C659.334 363.913 659.607 366.192 659.008 374.358C658.121 386.425 654.599 420.378 656.336 434.291C658.073 448.204 670.366 476.297 668.629 484.056C666.892 491.815 661.013 492.886 660.612 497.969C660.211 503.053 662.883 505.728 661.146 508.672C659.409 511.615 657.004 516.698 652.594 518.304C648.185 519.909 627.874 522.584 625.336 512.417C626.271 508.404 634.956 504.391 634.956 504.391C634.956 504.391 638.297 491.815 641.905 488.872C644.711 472.819 643.909 448.204 638.698 432.15C633.487 416.097 625.202 403.522 625.336 385.596" stroke="#121212" stroke-width="3" stroke-miterlimit="10" stroke-linecap="round" stroke-linejoin="round"/>
<path d="M483.161 114.829C486.769 110.869 487.752 110.762 489.575 111.083C491.398 111.404 492.381 106.481 494.385 107.872C496.39 109.263 501.291 107.369 503.472 106.802C505.652 106.235 498.977 107.728 508.817 107.337C518.657 106.946 511.981 108.086 516.834 107.337C521.687 106.588 522.494 105.229 525.386 105.732C528.277 106.235 525.167 102.018 530.731 105.197C536.295 108.375 532.468 108.621 536.61 108.942C540.752 109.263 540.667 108.621 542.489 109.478C544.312 110.334 546.364 111.473 546.765 112.153" stroke="#121212" stroke-width="3" stroke-miterlimit="10" stroke-linecap="round" stroke-linejoin="round"/>
<path d="M980.236 426.799C984.646 449.274 987.853 492.35 988.253 496.364C988.654 500.377 984.646 504.658 980.771 509.742C976.896 514.825 980.103 520.176 978.633 522.049C977.163 523.922 969.546 532.751 969.546 532.751L973.822 533.822C973.822 533.822 969.145 538.905 988.788 537.568C1008.43 536.23 1008.03 529.006 1008.03 529.006C1008.03 529.006 1008.16 508.136 1010.17 508.136C1012.17 508.136 1015.91 511.079 1017.12 504.391C1018.32 497.702 1012.84 494.223 1012.84 494.223C1012.84 494.223 1015.85 412.062 1012.93 389.443C1012.9 389.225 1012.87 389.013 1012.84 388.806M600.215 138.373C600.215 138.373 589.391 104.126 544.093 112.688M483.162 115.899C483.162 115.899 473.674 104.126 453.765 113.223C433.855 122.32 421.562 136.233 427.575 179.577C428.51 187.871 428.644 188.139 428.644 188.139C428.644 188.139 418.622 192.955 421.695 198.306C412.743 192.152 396.975 179.042 393.367 179.577C389.76 180.112 413.715 203.079 421.695 212.754C429.675 222.429 456.207 238.932 446.816 197.771C452.658 193.533 463.385 189.209 463.385 189.209C463.385 189.209 466.363 193.447 464.454 203.657C462.546 213.867 480.527 245.353 479.955 250.747C479.383 256.141 474.113 262.209 488.506 275.897C490.607 282.094 504.007 282.854 504.007 282.854M582.865 387.153C582.972 387.966 583.052 388.699 583.111 389.336C584.046 400.038 586.452 441.777 587.921 449.804C589.391 457.83 585.65 475.221 583.111 479.77C580.572 484.318 580.305 495.288 570.818 501.71C561.331 508.131 552.111 529 552.111 529C552.111 529 551.443 530.606 566.542 531.676C581.641 532.746 583.645 531.141 583.645 531.141L594.335 505.455C594.335 505.455 603.822 502.78 605.025 496.358C606.228 489.937 603.822 455.69 605.56 439.636C606.532 430.652 612.567 411.613 620.06 392.37" stroke="#121212" stroke-width="3" stroke-miterlimit="10" stroke-linecap="round" stroke-linejoin="round"/>
</g>
<path d="M969.5 410C977 403 983.9 392.756 1013.5 399.956M785 244.083C789 264.583 797.5 284.5 788.5 325M672.5 249.438L869.434 239M710 325H877.306M650 137.956C642.667 156.456 600 234 511 291M671.5 147C661.795 171.49 615.608 263.577 532.5 316M877.5 354C879.833 330.166 870.3 209.4 851.5 143M695 368.456C704.167 349.289 715 307.2 701 282C683.5 250.5 649.713 232 625.213 227M584 388C593.5 394.5 597.5 397 618 397.5" stroke="black" stroke-width="3" stroke-linecap="round" stroke-dasharray="7 10"/>
<path d="M555 555.099L561 551.099V547.599L568 555.099V544.599L581.5 551.099C582 548.932 581.7 541.899 576.5 531.099C583.7 530.299 589.5 541.766 591.5 547.599L596 534.099V544.599L603.5 540.099V547.599C606 545.099 613 538.899 621 534.099C615.4 540.899 616.667 548.266 618 551.099C622.167 547.766 630.6 539.699 631 534.099C632.2 542.499 636.167 541.599 638 540.099L642 547.599C643.333 544.766 645.2 536.699 642 527.099C648.4 537.499 650 545.099 650 547.599C651.333 543.766 653.6 534.699 652 529.099C658 537.899 660.5 545.099 661 547.599C664 544.766 669.5 536.699 667.5 527.099C670.7 537.499 671.5 543.099 671.5 544.599C674.5 541.099 682.9 534.099 692.5 534.099C684.9 538.899 684.333 543.099 685 544.599C689.5 542.099 701 536.499 711 534.099C704.2 538.899 701.833 543.099 701.5 544.599C705.833 542.099 715.3 537.099 718.5 537.099C717 544.599 727.5 540.099 729.5 540.099C727.9 546.099 731.833 547.599 734 547.599C736 549.932 741.8 553.899 749 551.099M805 511.956L809.392 509.099V506.599L814.515 511.956V504.456L824.397 509.099C824.763 507.551 824.543 502.527 820.737 494.813C826.007 494.242 830.253 502.432 831.716 506.599L835.01 496.956V504.456L840.5 501.242V506.599C842.33 504.813 847.454 500.385 853.309 496.956C849.21 501.813 850.137 507.075 851.113 509.099C854.163 506.718 860.336 500.956 860.629 496.956C861.507 502.956 864.411 502.313 865.753 501.242L868.68 506.599C869.656 504.575 871.023 498.813 868.68 491.956C873.365 499.385 874.536 504.813 874.536 506.599C875.512 503.861 877.171 497.385 876 493.385C880.392 499.67 882.222 504.813 882.588 506.599C884.783 504.575 888.809 498.813 887.345 491.956C889.688 499.385 890.273 503.385 890.273 504.456C892.469 501.956 898.618 496.956 905.644 496.956C900.081 500.385 899.667 503.385 900.155 504.456C903.448 502.67 911.866 498.67 919.186 496.956C914.208 500.385 912.476 503.385 912.232 504.456C915.404 502.67 922.333 499.099 924.675 499.099C923.577 504.456 931.263 501.242 932.727 501.242C931.556 505.527 934.435 506.599 936.021 506.599C937.485 508.266 941.73 511.099 947 509.099M905.5 557.956L909.892 555.099V552.599L915.015 557.956V550.456L924.897 555.099C925.263 553.551 925.043 548.527 921.237 540.813C926.507 540.242 930.753 548.432 932.216 552.599L935.51 542.956V550.456L941 547.242V552.599C942.83 550.813 947.954 546.385 953.809 542.956C949.71 547.813 950.637 553.075 951.613 555.099C954.663 552.718 960.836 546.956 961.129 542.956C962.007 548.956 964.911 548.313 966.253 547.242L969.18 552.599C970.156 550.575 971.523 544.813 969.18 537.956C973.865 545.385 975.036 550.813 975.036 552.599C976.012 549.861 977.671 543.385 976.5 539.385C980.892 545.67 982.722 550.813 983.088 552.599C985.283 550.575 989.309 544.813 987.845 537.956C990.188 545.385 990.773 549.385 990.773 550.456C992.969 547.956 999.118 542.956 1006.14 542.956C1000.58 546.385 1000.17 549.385 1000.65 550.456C1003.95 548.67 1012.37 544.67 1019.69 542.956C1014.71 546.385 1012.98 549.385 1012.73 550.456C1015.9 548.67 1022.83 545.099 1025.18 545.099C1024.08 550.456 1031.76 547.242 1033.23 547.242C1032.06 551.527 1034.93 552.599 1036.52 552.599C1037.98 554.266 1042.23 557.099 1047.5 555.099" stroke="black" stroke-width="3" stroke-linecap="round" stroke-linejoin="round"/>
<path opacity="0.2" d="M1175 478L1178.15 475.876V474.018L1181.82 478V472.425L1188.9 475.876C1189.16 474.726 1189 470.991 1186.27 465.257C1190.05 464.832 1193.09 470.92 1194.14 474.018L1196.5 466.85V472.425L1200.43 470.035V474.018C1201.74 472.69 1205.41 469.398 1209.61 466.85C1206.67 470.46 1207.34 474.372 1208.04 475.876C1210.22 474.106 1214.64 469.823 1214.85 466.85C1215.48 471.31 1217.56 470.832 1218.52 470.035L1220.62 474.018C1221.32 472.513 1222.3 468.23 1220.62 463.133C1223.98 468.655 1224.82 472.69 1224.82 474.018C1225.51 471.982 1226.7 467.168 1225.86 464.195C1229.01 468.867 1230.32 472.69 1230.58 474.018C1232.16 472.513 1235.04 468.23 1233.99 463.133C1235.67 468.655 1236.09 471.628 1236.09 472.425C1237.66 470.566 1242.07 466.85 1247.1 466.85C1243.12 469.398 1242.82 471.628 1243.17 472.425C1245.53 471.097 1251.56 468.124 1256.8 466.85C1253.24 469.398 1252 471.628 1251.82 472.425C1254.09 471.097 1259.06 468.442 1260.74 468.442C1259.95 472.425 1265.46 470.035 1266.5 470.035C1265.66 473.221 1267.73 474.018 1268.86 474.018C1269.91 475.257 1272.95 477.363 1276.73 475.876M1305.31 458.619L1307.61 457.102V455.775L1310.3 458.619V454.637L1315.48 457.102C1315.67 456.281 1315.56 453.613 1313.56 449.517C1316.32 449.214 1318.55 453.563 1319.32 455.775L1321.04 450.655V454.637L1323.92 452.93V455.775C1324.88 454.827 1327.57 452.475 1330.64 450.655C1328.49 453.234 1328.98 456.028 1329.49 457.102C1331.09 455.838 1334.32 452.779 1334.48 450.655C1334.94 453.841 1336.46 453.499 1337.16 452.93L1338.7 455.775C1339.21 454.7 1339.93 451.641 1338.7 448C1341.16 451.944 1341.77 454.827 1341.77 455.775C1342.28 454.321 1343.15 450.882 1342.54 448.759C1344.84 452.096 1345.8 454.827 1345.99 455.775C1347.14 454.7 1349.26 451.641 1348.49 448C1349.72 451.944 1350.02 454.068 1350.02 454.637C1351.17 453.31 1354.4 450.655 1358.08 450.655C1355.17 452.475 1354.95 454.068 1355.2 454.637C1356.93 453.689 1361.35 451.565 1365.18 450.655C1362.57 452.475 1361.67 454.068 1361.54 454.637C1363.2 453.689 1366.83 451.793 1368.06 451.793C1367.49 454.637 1371.52 452.93 1372.28 452.93C1371.67 455.206 1373.18 455.775 1374.01 455.775C1374.78 456.66 1377.01 458.164 1379.77 457.102M1342.54 477.204L1344.84 475.686V474.359L1347.53 477.204V473.221L1352.71 475.686C1352.9 474.865 1352.79 472.197 1350.79 468.101C1353.55 467.798 1355.78 472.147 1356.55 474.359L1358.28 469.239V473.221L1361.15 471.515V474.359C1362.11 473.411 1364.8 471.059 1367.87 469.239C1365.72 471.818 1366.21 474.612 1366.72 475.686C1368.32 474.422 1371.56 471.363 1371.71 469.239C1372.17 472.425 1373.69 472.083 1374.4 471.515L1375.93 474.359C1376.44 473.284 1377.16 470.225 1375.93 466.584C1378.39 470.528 1379 473.411 1379 474.359C1379.51 472.905 1380.38 469.467 1379.77 467.343C1382.07 470.68 1383.03 473.411 1383.22 474.359C1384.38 473.284 1386.49 470.225 1385.72 466.584C1386.95 470.528 1387.25 472.652 1387.25 473.221C1388.41 471.894 1391.63 469.239 1395.31 469.239C1392.4 471.059 1392.18 472.652 1392.44 473.221C1394.16 472.273 1398.58 470.149 1402.41 469.239C1399.8 471.059 1398.9 472.652 1398.77 473.221C1400.43 472.273 1404.07 470.377 1405.29 470.377C1404.72 473.221 1408.75 471.515 1409.52 471.515C1408.9 473.79 1410.41 474.359 1411.24 474.359C1412.01 475.244 1414.24 476.748 1417 475.686M1013 434L1015.31 432.442V431.08L1018.01 434V429.912L1023.22 432.442C1023.41 431.599 1023.3 428.86 1021.29 424.655C1024.07 424.343 1026.31 428.808 1027.08 431.08L1028.81 425.823V429.912L1031.71 428.159V431.08C1032.67 430.106 1035.37 427.692 1038.46 425.823C1036.3 428.471 1036.78 431.339 1037.3 432.442C1038.91 431.145 1042.16 428.004 1042.31 425.823C1042.78 429.094 1044.31 428.743 1045.01 428.159L1046.56 431.08C1047.07 429.976 1047.79 426.835 1046.56 423.097C1049.02 427.147 1049.64 430.106 1049.64 431.08C1050.16 429.587 1051.03 426.057 1050.41 423.876C1052.73 427.303 1053.69 430.106 1053.88 431.08C1055.04 429.976 1057.16 426.835 1056.39 423.097C1057.63 427.147 1057.93 429.327 1057.93 429.912C1059.09 428.549 1062.33 425.823 1066.03 425.823C1063.1 427.692 1062.88 429.327 1063.14 429.912C1064.88 428.938 1069.31 426.758 1073.17 425.823C1070.55 427.692 1069.63 429.327 1069.5 429.912C1071.18 428.938 1074.83 426.991 1076.06 426.991C1075.48 429.912 1079.53 428.159 1080.3 428.159C1079.69 430.496 1081.2 431.08 1082.04 431.08C1082.81 431.988 1085.05 433.533 1087.83 432.442M1108.85 419.788L1110.54 418.675V417.702L1112.52 419.788V416.867L1116.33 418.675C1116.47 418.072 1116.38 416.116 1114.92 413.113C1116.95 412.89 1118.59 416.079 1119.15 417.702L1120.42 413.947V416.867L1122.54 415.616V417.702C1123.24 417.006 1125.22 415.282 1127.48 413.947C1125.9 415.838 1126.26 417.887 1126.63 418.675C1127.81 417.748 1130.19 415.504 1130.3 413.947C1130.64 416.283 1131.76 416.033 1132.28 415.616L1133.41 417.702C1133.78 416.914 1134.31 414.67 1133.41 412C1135.21 414.893 1135.67 417.006 1135.67 417.702C1136.04 416.635 1136.68 414.114 1136.23 412.556C1137.92 415.004 1138.63 417.006 1138.77 417.702C1139.62 416.914 1141.17 414.67 1140.61 412C1141.51 414.893 1141.74 416.45 1141.74 416.867C1142.58 415.894 1144.95 413.947 1147.66 413.947C1145.52 415.282 1145.36 416.45 1145.55 416.867C1146.82 416.172 1150.06 414.614 1152.89 413.947C1150.97 415.282 1150.3 416.45 1150.21 416.867C1151.43 416.172 1154.1 414.781 1155 414.781C1154.58 416.867 1157.55 415.616 1158.11 415.616C1157.66 417.284 1158.77 417.702 1159.38 417.702C1159.95 418.351 1161.58 419.454 1163.62 418.675M1136.23 433.416L1137.92 432.303V431.33L1139.9 433.416V430.496L1143.71 432.303C1143.85 431.701 1143.77 429.745 1142.3 426.741C1144.33 426.518 1145.97 429.708 1146.54 431.33L1147.81 427.575V430.496L1149.92 429.244V431.33C1150.63 430.635 1152.61 428.91 1154.86 427.575C1153.28 429.467 1153.64 431.515 1154.02 432.303C1155.19 431.376 1157.57 429.133 1157.69 427.575C1158.03 429.912 1159.15 429.661 1159.66 429.244L1160.79 431.33C1161.17 430.542 1161.7 428.298 1160.79 425.628C1162.6 428.521 1163.05 430.635 1163.05 431.33C1163.43 430.264 1164.07 427.742 1163.62 426.185C1165.31 428.632 1166.02 430.635 1166.16 431.33C1167 430.542 1168.56 428.298 1167.99 425.628C1168.89 428.521 1169.12 430.078 1169.12 430.496C1169.97 429.522 1172.34 427.575 1175.05 427.575C1172.9 428.91 1172.74 430.078 1172.93 430.496C1174.2 429.8 1177.45 428.243 1180.27 427.575C1178.35 428.91 1177.68 430.078 1177.59 430.496C1178.81 429.8 1181.49 428.41 1182.39 428.41C1181.97 430.496 1184.93 429.244 1185.49 429.244C1185.04 430.913 1186.15 431.33 1186.77 431.33C1187.33 431.979 1188.97 433.082 1191 432.303M390 478L386.854 475.876V474.018L383.183 478V472.425L376.104 475.876C375.842 474.726 375.999 470.991 378.726 465.257C374.95 464.832 371.909 470.92 370.86 474.018L368.501 466.85V472.425L364.568 470.035V474.018C363.257 472.69 359.586 469.398 355.391 466.85C358.328 470.46 357.663 474.372 356.964 475.876C354.779 474.106 350.357 469.823 350.147 466.85C349.518 471.31 347.438 470.832 346.477 470.035L344.379 474.018C343.68 472.513 342.701 468.23 344.379 463.133C341.023 468.655 340.184 472.69 340.184 474.018C339.485 471.982 338.296 467.168 339.135 464.195C335.989 468.867 334.678 472.69 334.416 474.018C332.843 472.513 329.959 468.23 331.008 463.133C329.33 468.655 328.91 471.628 328.91 472.425C327.337 470.566 322.932 466.85 317.898 466.85C321.883 469.398 322.181 471.628 321.831 472.425C319.471 471.097 313.441 468.124 308.197 466.85C311.763 469.398 313.004 471.628 313.179 472.425C310.906 471.097 305.942 468.442 304.264 468.442C305.051 472.425 299.545 470.035 298.496 470.035C299.335 473.221 297.273 474.018 296.137 474.018C295.088 475.257 292.046 477.363 288.271 475.876M259.692 458.619L257.389 457.102V455.775L254.703 458.619V454.637L249.521 457.102C249.329 456.281 249.444 453.613 251.44 449.517C248.677 449.214 246.45 453.563 245.683 455.775L243.956 450.655V454.637L241.077 452.93V455.775C240.117 454.827 237.431 452.475 234.36 450.655C236.509 453.234 236.023 456.028 235.512 457.102C233.912 455.838 230.675 452.779 230.522 450.655C230.061 453.841 228.539 453.499 227.835 452.93L226.3 455.775C225.788 454.7 225.072 451.641 226.3 448C223.843 451.944 223.229 454.827 223.229 455.775C222.717 454.321 221.847 450.882 222.462 448.759C220.159 452.096 219.199 454.827 219.007 455.775C217.856 454.7 215.745 451.641 216.512 448C215.284 451.944 214.977 454.068 214.977 454.637C213.826 453.31 210.601 450.655 206.917 450.655C209.834 452.475 210.051 454.068 209.795 454.637C208.068 453.689 203.654 451.565 199.816 450.655C202.426 452.475 203.334 454.068 203.462 454.637C201.799 453.689 198.166 451.793 196.937 451.793C197.513 454.637 193.483 452.93 192.715 452.93C193.329 455.206 191.82 455.775 190.988 455.775C190.22 456.66 187.994 458.164 185.231 457.102M222.462 477.204L220.159 475.686V474.359L217.472 477.204V473.221L212.29 475.686C212.098 474.865 212.213 472.197 214.209 468.101C211.446 467.798 209.22 472.147 208.452 474.359L206.725 469.239V473.221L203.846 471.515V474.359C202.887 473.411 200.2 471.059 197.129 469.239C199.279 471.818 198.792 474.612 198.281 475.686C196.681 474.422 193.445 471.363 193.291 469.239C192.83 472.425 191.308 472.083 190.604 471.515L189.069 474.359C188.557 473.284 187.841 470.225 189.069 466.584C186.613 470.528 185.998 473.411 185.998 474.359C185.487 472.905 184.617 469.467 185.231 467.343C182.928 470.68 181.968 473.411 181.776 474.359C180.625 473.284 178.514 470.225 179.282 466.584C178.053 470.528 177.746 472.652 177.746 473.221C176.595 471.894 173.371 469.239 169.686 469.239C172.603 471.059 172.821 472.652 172.565 473.221C170.837 472.273 166.423 470.149 162.585 469.239C165.195 471.059 166.104 472.652 166.232 473.221C164.568 472.273 160.935 470.377 159.707 470.377C160.282 473.221 156.252 471.515 155.485 471.515C156.099 473.79 154.589 474.359 153.757 474.359C152.99 475.244 150.764 476.748 148 475.686M552 434L549.686 432.442V431.08L546.986 434V429.912L541.779 432.442C541.586 431.599 541.702 428.86 543.707 424.655C540.93 424.343 538.693 428.808 537.922 431.08L536.186 425.823V429.912L533.294 428.159V431.08C532.329 430.106 529.629 427.692 526.544 425.823C528.704 428.471 528.215 431.339 527.701 432.442C526.094 431.145 522.841 428.004 522.687 425.823C522.224 429.094 520.694 428.743 519.987 428.159L518.444 431.08C517.93 429.976 517.21 426.835 518.444 423.097C515.976 427.147 515.359 430.106 515.359 431.08C514.844 429.587 513.97 426.057 514.587 423.876C512.273 427.303 511.309 430.106 511.116 431.08C509.959 429.976 507.837 426.835 508.609 423.097C507.375 427.147 507.066 429.327 507.066 429.912C505.909 428.549 502.669 425.823 498.966 425.823C501.898 427.692 502.116 429.327 501.859 429.912C500.124 428.938 495.688 426.758 491.831 425.823C494.454 427.692 495.367 429.327 495.495 429.912C493.824 428.938 490.172 426.991 488.938 426.991C489.517 429.912 485.467 428.159 484.696 428.159C485.313 430.496 483.796 431.08 482.96 431.08C482.188 431.988 479.951 433.533 477.174 432.442M456.154 419.788L454.46 418.675V417.702L452.484 419.788V416.867L448.672 418.675C448.531 418.072 448.616 416.116 450.084 413.113C448.051 412.89 446.414 416.079 445.849 417.702L444.579 413.947V416.867L442.462 415.616V417.702C441.756 417.006 439.78 415.282 437.521 413.947C439.102 415.838 438.744 417.887 438.368 418.675C437.192 417.748 434.811 415.504 434.698 413.947C434.359 416.283 433.239 416.033 432.722 415.616L431.592 417.702C431.216 416.914 430.689 414.67 431.592 412C429.786 414.893 429.334 417.006 429.334 417.702C428.957 416.635 428.318 414.114 428.769 412.556C427.075 415.004 426.37 417.006 426.228 417.702C425.381 416.914 423.829 414.67 424.393 412C423.49 414.893 423.264 416.45 423.264 416.867C422.417 415.894 420.046 413.947 417.335 413.947C419.481 415.282 419.641 416.45 419.453 416.867C418.182 416.172 414.936 414.614 412.113 413.947C414.032 415.282 414.701 416.45 414.795 416.867C413.571 416.172 410.899 414.781 409.995 414.781C410.419 416.867 407.454 415.616 406.89 415.616C407.341 417.284 406.231 417.702 405.619 417.702C405.055 418.351 403.417 419.454 401.385 418.675M428.769 433.416L427.075 432.303V431.33L425.099 433.416V430.496L421.288 432.303C421.147 431.701 421.231 429.745 422.699 426.741C420.667 426.518 419.029 429.708 418.465 431.33L417.194 427.575V430.496L415.077 429.244V431.33C414.371 430.635 412.395 428.91 410.136 427.575C411.717 429.467 411.36 431.515 410.983 432.303C409.807 431.376 407.426 429.133 407.313 427.575C406.974 429.912 405.855 429.661 405.337 429.244L404.208 431.33C403.831 430.542 403.304 428.298 404.208 425.628C402.401 428.521 401.949 430.635 401.949 431.33C401.573 430.264 400.933 427.742 401.385 426.185C399.691 428.632 398.985 430.635 398.844 431.33C397.997 430.542 396.444 428.298 397.009 425.628C396.105 428.521 395.879 430.078 395.879 430.496C395.033 429.522 392.661 427.575 389.951 427.575C392.096 428.91 392.256 430.078 392.068 430.496C390.798 429.8 387.551 428.243 384.728 427.575C386.648 428.91 387.316 430.078 387.41 430.496C386.187 429.8 383.514 428.41 382.611 428.41C383.034 430.496 380.07 429.244 379.505 429.244C379.957 430.913 378.846 431.33 378.235 431.33C377.67 431.979 376.033 433.082 374 432.303" stroke="black" stroke-width="3" stroke-linecap="round" stroke-linejoin="round"/>
<path opacity="0.3" d="M51.2691 104.6C37.7775 102.33 10.0356 103.433 7 126M254.486 126C302.549 112.706 241.837 77.3632 190.822 88.0633C152.034 64.7176 120.413 71.5268 108.187 88.0633M51.2691 121.461C50.2684 109.031 54.6015 84.1723 79.9389 84.1723C105.276 84.1723 113.825 91.9542 114.933 95.8451" stroke="black" stroke-width="3" stroke-linecap="round" stroke-linejoin="round"/>
<path opacity="0.3" d="M251.327 51.4865C230.199 47.932 186.754 49.6585 182 85M569.572 85C644.841 64.181 549.764 8.83289 469.873 25.5897C409.129 -10.9706 359.61 -0.307161 340.462 25.5897M251.327 77.891C249.76 58.4261 256.546 19.4962 296.225 19.4962C335.904 19.4962 349.292 31.683 351.026 37.7764" stroke="black" stroke-width="3" stroke-linecap="round" stroke-linejoin="round"/>
<path opacity="0.3" d="M1177.57 177.06C1168.25 175.476 1149.1 176.245 1147 192M1317.91 192C1351.1 182.719 1309.17 158.046 1273.94 165.516C1247.16 149.218 1225.32 153.972 1216.88 165.516M1177.57 188.831C1176.88 180.154 1179.87 162.8 1197.37 162.8C1214.87 162.8 1220.77 168.232 1221.53 170.948" stroke="black" stroke-width="3" stroke-linecap="round" stroke-linejoin="round"/>
<path opacity="0.3" d="M1267.57 137.06C1258.25 135.476 1239.1 136.245 1237 152M1407.91 152C1441.1 142.719 1399.17 118.046 1363.94 125.516C1337.16 109.218 1315.32 113.972 1306.88 125.516M1267.57 148.831C1266.88 140.154 1269.87 122.8 1287.37 122.8C1304.87 122.8 1310.77 128.232 1311.53 130.948" stroke="black" stroke-width="3" stroke-linecap="round" stroke-linejoin="round"/>
<path opacity="0.2" d="M1319.55 309.098C1312.68 307.942 1298.55 308.503 1297 320M1423.08 320C1447.56 313.228 1416.63 295.223 1390.65 300.674C1370.89 288.781 1354.78 292.249 1348.55 300.674M1319.55 317.687C1319.04 311.355 1321.25 298.692 1334.16 298.692C1347.07 298.692 1351.42 302.656 1351.98 304.638" stroke="black" stroke-width="3" stroke-linecap="round" stroke-linejoin="round"/>
<path opacity="0.2" d="M114.448 21.098C121.321 19.9417 135.454 20.5034 137 32M10.9225 32C-13.5627 25.2276 17.366 7.22275 43.3546 12.6737C63.1146 0.780661 79.2233 4.24948 85.452 12.6737M114.448 29.6874C114.958 23.3555 112.75 10.6916 99.8425 10.6916C86.9347 10.6916 82.5796 14.6559 82.0155 16.6381" stroke="black" stroke-width="3" stroke-linecap="round" stroke-linejoin="round"/>
<g filter="url(#filter0_d)">
<circle cx="513" cy="177" r="15" fill="white"/>
</g>
<circle cx="513" cy="177" r="9" fill="#5BEE61"/>
<g filter="url(#filter1_d)">
<circle cx="580" cy="255" r="15" fill="white"/>
</g>
<circle cx="580" cy="255" r="9" fill="#5BEE61"/>
<g filter="url(#filter2_d)">
<circle cx="627" cy="306" r="15" fill="white"/>
</g>
<circle cx="627" cy="306" r="9" fill="#5BEE61"/>
<g filter="url(#filter3_d)">
<circle cx="748" cy="287" r="15" fill="white"/>
</g>
<circle cx="748" cy="287" r="9" fill="#5BEE61"/>
<g filter="url(#filter4_d)">
<circle cx="772" cy="209.456" r="15" fill="white"/>
</g>
<circle cx="772" cy="209.456" r="9" fill="#5BEE61"/>
<g filter="url(#filter5_d)">
<circle cx="837" cy="287" r="15" fill="white"/>
</g>
<circle cx="837" cy="287" r="9" fill="#5BEE61"/>
<g filter="url(#filter6_d)">
<circle cx="790" cy="351" r="15" fill="white"/>
</g>
<circle cx="790" cy="351" r="9" fill="#5BEE61"/>
<g filter="url(#filter7_d)">
<circle cx="945" cy="278" r="15" fill="white"/>
</g>
<circle cx="945" cy="278" r="9" fill="#5BEE61"/>
<g filter="url(#filter8_d)">
<circle cx="995" cy="425" r="15" fill="white"/>
</g>
<circle cx="995" cy="425" r="9" fill="#5BEE61"/>
<defs>
<filter id="filter0_d" x="494" y="162" width="38" height="38" filterUnits="userSpaceOnUse" color-interpolation-filters="sRGB">
<feFlood flood-opacity="0" result="BackgroundImageFix"/>
<feColorMatrix in="SourceAlpha" type="matrix" values="0 0 0 0 0 0 0 0 0 0 0 0 0 0 0 0 0 0 127 0"/>
<feOffset dy="4"/>
<feGaussianBlur stdDeviation="2"/>
<feColorMatrix type="matrix" values="0 0 0 0 0 0 0 0 0 0 0 0 0 0 0 0 0 0 0.25 0"/>
<feBlend mode="normal" in2="BackgroundImageFix" result="effect1_dropShadow"/>
<feBlend mode="normal" in="SourceGraphic" in2="effect1_dropShadow" result="shape"/>
</filter>
<filter id="filter1_d" x="561" y="240" width="38" height="38" filterUnits="userSpaceOnUse" color-interpolation-filters="sRGB">
<feFlood flood-opacity="0" result="BackgroundImageFix"/>
<feColorMatrix in="SourceAlpha" type="matrix" values="0 0 0 0 0 0 0 0 0 0 0 0 0 0 0 0 0 0 127 0"/>
<feOffset dy="4"/>
<feGaussianBlur stdDeviation="2"/>
<feColorMatrix type="matrix" values="0 0 0 0 0 0 0 0 0 0 0 0 0 0 0 0 0 0 0.25 0"/>
<feBlend mode="normal" in2="BackgroundImageFix" result="effect1_dropShadow"/>
<feBlend mode="normal" in="SourceGraphic" in2="effect1_dropShadow" result="shape"/>
</filter>
<filter id="filter2_d" x="608" y="291" width="38" height="38" filterUnits="userSpaceOnUse" color-interpolation-filters="sRGB">
<feFlood flood-opacity="0" result="BackgroundImageFix"/>
<feColorMatrix in="SourceAlpha" type="matrix" values="0 0 0 0 0 0 0 0 0 0 0 0 0 0 0 0 0 0 127 0"/>
<feOffset dy="4"/>
<feGaussianBlur stdDeviation="2"/>
<feColorMatrix type="matrix" values="0 0 0 0 0 0 0 0 0 0 0 0 0 0 0 0 0 0 0.25 0"/>
<feBlend mode="normal" in2="BackgroundImageFix" result="effect1_dropShadow"/>
<feBlend mode="normal" in="SourceGraphic" in2="effect1_dropShadow" result="shape"/>
</filter>
<filter id="filter3_d" x="729" y="272" width="38" height="38" filterUnits="userSpaceOnUse" color-interpolation-filters="sRGB">
<feFlood flood-opacity="0" result="BackgroundImageFix"/>
<feColorMatrix in="SourceAlpha" type="matrix" values="0 0 0 0 0 0 0 0 0 0 0 0 0 0 0 0 0 0 127 0"/>
<feOffset dy="4"/>
<feGaussianBlur stdDeviation="2"/>
<feColorMatrix type="matrix" values="0 0 0 0 0 0 0 0 0 0 0 0 0 0 0 0 0 0 0.25 0"/>
<feBlend mode="normal" in2="BackgroundImageFix" result="effect1_dropShadow"/>
<feBlend mode="normal" in="SourceGraphic" in2="effect1_dropShadow" result="shape"/>
</filter>
<filter id="filter4_d" x="753" y="194.456" width="38" height="38" filterUnits="userSpaceOnUse" color-interpolation-filters="sRGB">
<feFlood flood-opacity="0" result="BackgroundImageFix"/>
<feColorMatrix in="SourceAlpha" type="matrix" values="0 0 0 0 0 0 0 0 0 0 0 0 0 0 0 0 0 0 127 0"/>
<feOffset dy="4"/>
<feGaussianBlur stdDeviation="2"/>
<feColorMatrix type="matrix" values="0 0 0 0 0 0 0 0 0 0 0 0 0 0 0 0 0 0 0.25 0"/>
<feBlend mode="normal" in2="BackgroundImageFix" result="effect1_dropShadow"/>
<feBlend mode="normal" in="SourceGraphic" in2="effect1_dropShadow" result="shape"/>
</filter>
<filter id="filter5_d" x="818" y="272" width="38" height="38" filterUnits="userSpaceOnUse" color-interpolation-filters="sRGB">
<feFlood flood-opacity="0" result="BackgroundImageFix"/>
<feColorMatrix in="SourceAlpha" type="matrix" values="0 0 0 0 0 0 0 0 0 0 0 0 0 0 0 0 0 0 127 0"/>
<feOffset dy="4"/>
<feGaussianBlur stdDeviation="2"/>
<feColorMatrix type="matrix" values="0 0 0 0 0 0 0 0 0 0 0 0 0 0 0 0 0 0 0.25 0"/>
<feBlend mode="normal" in2="BackgroundImageFix" result="effect1_dropShadow"/>
<feBlend mode="normal" in="SourceGraphic" in2="effect1_dropShadow" result="shape"/>
</filter>
<filter id="filter6_d" x="771" y="336" width="38" height="38" filterUnits="userSpaceOnUse" color-interpolation-filters="sRGB">
<feFlood flood-opacity="0" result="BackgroundImageFix"/>
<feColorMatrix in="SourceAlpha" type="matrix" values="0 0 0 0 0 0 0 0 0 0 0 0 0 0 0 0 0 0 127 0"/>
<feOffset dy="4"/>
<feGaussianBlur stdDeviation="2"/>
<feColorMatrix type="matrix" values="0 0 0 0 0 0 0 0 0 0 0 0 0 0 0 0 0 0 0.25 0"/>
<feBlend mode="normal" in2="BackgroundImageFix" result="effect1_dropShadow"/>
<feBlend mode="normal" in="SourceGraphic" in2="effect1_dropShadow" result="shape"/>
</filter>
<filter id="filter7_d" x="926" y="263" width="38" height="38" filterUnits="userSpaceOnUse" color-interpolation-filters="sRGB">
<feFlood flood-opacity="0" result="BackgroundImageFix"/>
<feColorMatrix in="SourceAlpha" type="matrix" values="0 0 0 0 0 0 0 0 0 0 0 0 0 0 0 0 0 0 127 0"/>
<feOffset dy="4"/>
<feGaussianBlur stdDeviation="2"/>
<feColorMatrix type="matrix" values="0 0 0 0 0 0 0 0 0 0 0 0 0 0 0 0 0 0 0.25 0"/>
<feBlend mode="normal" in2="BackgroundImageFix" result="effect1_dropShadow"/>
<feBlend mode="normal" in="SourceGraphic" in2="effect1_dropShadow" result="shape"/>
</filter>
<filter id="filter8_d" x="976" y="410" width="38" height="38" filterUnits="userSpaceOnUse" color-interpolation-filters="sRGB">
<feFlood flood-opacity="0" result="BackgroundImageFix"/>
<feColorMatrix in="SourceAlpha" type="matrix" values="0 0 0 0 0 0 0 0 0 0 0 0 0 0 0 0 0 0 127 0"/>
<feOffset dy="4"/>
<feGaussianBlur stdDeviation="2"/>
<feColorMatrix type="matrix" values="0 0 0 0 0 0 0 0 0 0 0 0 0 0 0 0 0 0 0.25 0"/>
<feBlend mode="normal" in2="BackgroundImageFix" result="effect1_dropShadow"/>
<feBlend mode="normal" in="SourceGraphic" in2="effect1_dropShadow" result="shape"/>
</filter>
<clipPath id="clip0">
<rect width="634" height="437" fill="white" transform="translate(390 104)"/>
</clipPath>
</defs>
</svg>
