<svg width="11" height="9" viewBox="0 0 11 9" fill="none" xmlns="http://www.w3.org/2000/svg">
<path d="M8.87086 5.61127L7.91025 5.33337V5.33337L8.87086 5.61127ZM5.94792 1.13465L5.70705 2.10521L5.94792 1.13465ZM1.96061 3.93574C1.80714 4.46627 1.25264 4.77193 0.722106 4.61846C0.191575 4.46498 -0.114088 3.91048 0.0393887 3.37995L1.96061 3.93574ZM6.99618 7.80311L7.449 8.69471C7.43171 8.70349 7.41417 8.71177 7.3964 8.71953L6.99618 7.80311ZM4.05428 7.07298L4.85714 6.4768L4.85714 6.4768L4.05428 7.07298ZM4.53162 3.71971C5.03688 3.4967 5.62726 3.72549 5.85027 4.23075C6.07329 4.736 5.84449 5.32638 5.33924 5.5494L4.53162 3.71971ZM7.91025 5.33337C8.28294 4.04506 7.43615 2.53435 5.70705 2.10521L6.1888 0.164099C8.80665 0.813808 10.5771 3.31156 9.83147 5.88916L7.91025 5.33337ZM5.70705 2.10521C3.9604 1.67172 2.34475 2.60786 1.96061 3.93574L0.0393887 3.37995C0.773612 0.841917 3.58849 -0.481257 6.1888 0.164099L5.70705 2.10521ZM6.54336 6.91151C7.22686 6.56438 7.71646 6.00324 7.91025 5.33337L9.83147 5.88916C9.46481 7.15662 8.56217 8.12936 7.449 8.69471L6.54336 6.91151ZM7.3964 8.71953C6.98643 8.89857 6.3053 9.05767 5.56256 8.97965C4.7874 8.89822 3.90551 8.54999 3.25143 7.66915L4.85714 6.4768C5.11369 6.82229 5.4365 6.9554 5.77151 6.99059C6.13895 7.02919 6.47344 6.9402 6.59596 6.88669L7.3964 8.71953ZM3.25143 7.66915C2.92143 7.22474 2.73698 6.74141 2.72317 6.23964C2.7095 5.74284 2.86533 5.3129 3.0735 4.97237C3.46897 4.32545 4.10523 3.90792 4.53162 3.71971L5.33924 5.5494C5.2684 5.58067 5.15457 5.64462 5.03844 5.7373C4.92197 5.83023 4.83351 5.92784 4.77992 6.01551C4.72952 6.09795 4.72149 6.15094 4.72241 6.18462C4.7232 6.21334 4.73182 6.30804 4.85714 6.4768L3.25143 7.66915Z" fill="#40454A"/>
</svg>
