<svg width="401" height="24" viewBox="0 0 401 24" fill="none" xmlns="http://www.w3.org/2000/svg">
<path d="M394 22C394.552 22 395 22.4477 395 23C395 23.5523 394.552 24 394 24V22ZM394 0C394.552 0 395 0.447715 395 1C395 1.55228 394.552 2 394 2V0ZM382.5 11C383.052 11 383.5 11.4477 383.5 12C383.5 12.5523 383.052 13 382.5 13V11ZM1 13C0.447723 13 0 12.5523 0 12C0 11.4477 0.447723 11 1 11V13ZM388.495 13.2771L389.461 13.0182L388.495 13.2771ZM392.768 6.21253L393.026 7.17846L392.768 6.21253ZM400.966 9.93555C401.109 10.469 400.792 11.0174 400.259 11.1603C399.725 11.3032 399.177 10.9867 399.034 10.4532L400.966 9.93555ZM391.235 16.736L390.809 17.6405C390.791 17.6318 390.772 17.6226 390.755 17.6128L391.235 16.736ZM395.536 15.5838L394.712 15.0171L394.712 15.0171L395.536 15.5838ZM393.817 12.6385C393.319 12.4009 393.107 11.8041 393.345 11.3055C393.582 10.807 394.179 10.5954 394.678 10.833L393.817 12.6385ZM384 12C384 17.5228 388.477 22 394 22V24C387.373 24 382 18.6274 382 12H384ZM394 2C388.477 2 384 6.47715 384 12H382C382 5.37258 387.373 0 394 0V2ZM382.5 13L1 13V11L382.5 11V13ZM387.529 13.5359C386.559 9.91538 388.836 6.23079 392.509 5.2466L393.026 7.17846C390.346 7.89679 388.797 10.538 389.461 13.0182L387.529 13.5359ZM392.509 5.2466C396.182 4.26242 399.996 6.31505 400.966 9.93555L399.034 10.4532C398.369 7.97291 395.707 6.46012 393.026 7.17846L392.509 5.2466ZM390.755 17.6128C389.218 16.7702 388.014 15.3448 387.529 13.5359L389.461 13.0182C389.796 14.2666 390.627 15.2618 391.716 15.8592L390.755 17.6128ZM391.662 15.8315C391.901 15.9444 392.458 16.0985 393.066 16.0296C393.632 15.9653 394.233 15.7126 394.712 15.0171L396.36 16.1505C395.507 17.3902 394.347 17.8971 393.291 18.0169C392.276 18.132 391.348 17.8946 390.809 17.6405L391.662 15.8315ZM394.712 15.0171C394.949 14.6716 395.015 14.4005 395.02 14.1998C395.026 13.9947 394.969 13.7912 394.852 13.5846C394.6 13.1402 394.126 12.7856 393.817 12.6385L394.678 10.833C395.253 11.1069 396.088 11.7086 396.592 12.5992C396.853 13.0601 397.036 13.6187 397.02 14.2508C397.004 14.8873 396.787 15.5284 396.36 16.1505L394.712 15.0171Z" fill="white"/>
</svg>
