<svg width="2166" height="387" viewBox="0 0 2166 387" fill="none" xmlns="http://www.w3.org/2000/svg">
<path fill-rule="evenodd" clip-rule="evenodd" d="M2166 386.786V0C2090.85 20.5952 1858.87 61.7856 1532.15 61.7856C1357.72 61.7856 1263.19 57.302 1157.5 51.2856C1146.49 50.6589 1139.79 41.635 1132.68 32.0501C1124.29 20.741 1115.32 8.65082 1098 8.65082C1081.21 8.65082 1072.82 18.7404 1065.02 28.1129C1057.96 36.6033 1051.38 44.5054 1039.5 43.7856C922.712 36.7109 872.243 33.9415 788.818 37.9213C738.602 40.3169 700.55 44.7849 666.722 48.757C589.757 57.794 534.654 64.2641 407.906 37.9213C261.94 7.58427 75.1494 13.2942 0 19.9413V386.786H2166Z" fill="#F4F4F4"/>
</svg>
