<svg width="33" height="56" viewBox="0 0 33 56" fill="none" xmlns="http://www.w3.org/2000/svg">
<path d="M9.89031 44.4615C10.5429 43.0841 12.8551 40.3784 15.8548 42.4535C18.8545 44.5287 17.9452 47.9151 17.6408 49.1575C17.3363 50.4 15.8548 52.8535 12.625 53.7239C7.89689 54.9982 2.64883 51.7217 1.32937 46.7688C0.00991601 41.8158 2.77312 36.7677 7.50123 35.4935L32 28L7.50137 20.5065C2.77326 19.2323 0.0100567 14.1842 1.32951 9.23125C2.64897 4.27834 7.89703 1.00181 12.6251 2.27607C15.8549 3.14652 17.3364 5.60002 17.6409 6.84248C17.9454 8.08495 18.8546 11.4713 15.8549 13.5465C12.8553 15.6216 10.543 12.9159 9.89045 11.5385" stroke="white" stroke-width="2" stroke-linecap="round" stroke-linejoin="round"/>
</svg>
