<svg width="33" height="56" viewBox="0 0 33 56" fill="none" xmlns="http://www.w3.org/2000/svg">
<path d="M23.1097 11.5385C22.4571 12.9159 20.1448 15.6216 17.1452 13.5465C14.1455 11.4713 15.0548 8.08495 15.3592 6.84248C15.6637 5.60002 17.1452 3.14652 20.375 2.27606C25.1031 1.00181 30.3512 4.27834 31.6706 9.23125C32.9901 14.1842 30.2269 19.2323 25.4988 20.5065L0.999999 28L25.4986 35.4935C30.2267 36.7677 32.9899 41.8158 31.6705 46.7688C30.351 51.7217 25.103 54.9982 20.3749 53.7239C17.145 52.8535 15.6636 50.4 15.3591 49.1575C15.0546 47.9151 14.1454 44.5287 17.145 42.4535C20.1447 40.3784 22.457 43.0841 23.1095 44.4615" stroke="white" stroke-width="2" stroke-linecap="round" stroke-linejoin="round"/>
</svg>
