<svg width="654" height="24" viewBox="0 0 654 24" fill="none" xmlns="http://www.w3.org/2000/svg">
<path d="M7 22C6.44772 22 6 22.4477 6 23C6 23.5523 6.44772 24 7 24V22ZM7 0C6.44772 0 6 0.447715 6 1C6 1.55228 6.44772 2 7 2V0ZM18.5 11C17.9477 11 17.5 11.4477 17.5 12C17.5 12.5523 17.9477 13 18.5 13V11ZM652.5 13C653.052 13 653.5 12.5523 653.5 12C653.5 11.4477 653.052 11 652.5 11V13ZM12.5048 13.2771L11.5388 13.0182L12.5048 13.2771ZM8.23232 6.21253L7.9735 7.17846L8.23232 6.21253ZM0.0340742 9.93555C-0.108868 10.469 0.207715 11.0174 0.741181 11.1603C1.27465 11.3032 1.82298 10.9867 1.96593 10.4532L0.0340742 9.93555ZM9.76456 16.736L10.191 17.6405C10.2094 17.6318 10.2275 17.6226 10.2454 17.6128L9.76456 16.736ZM5.4644 15.5838L6.28833 15.0171L6.28833 15.0171L5.4644 15.5838ZM7.18258 12.6385C7.68114 12.4009 7.8927 11.8041 7.65511 11.3055C7.41752 10.807 6.82075 10.5954 6.32218 10.833L7.18258 12.6385ZM17 12C17 17.5228 12.5228 22 7 22V24C13.6274 24 19 18.6274 19 12H17ZM7 2C12.5228 2 17 6.47715 17 12H19C19 5.37258 13.6274 0 7 0V2ZM18.5 13H652.5V11H18.5V13ZM13.4707 13.5359C14.4408 9.91538 12.1642 6.23079 8.49114 5.2466L7.9735 7.17846C10.6544 7.89679 12.2034 10.538 11.5388 13.0182L13.4707 13.5359ZM8.49114 5.2466C4.81812 4.26242 1.00418 6.31505 0.0340742 9.93555L1.96593 10.4532C2.63052 7.97291 5.29262 6.46012 7.9735 7.17846L8.49114 5.2466ZM10.2454 17.6128C11.7821 16.7702 12.986 15.3448 13.4707 13.5359L11.5388 13.0182C11.2043 14.2666 10.3732 15.2618 9.28377 15.8592L10.2454 17.6128ZM9.33809 15.8315C9.09871 15.9444 8.54231 16.0985 7.93445 16.0296C7.36769 15.9653 6.76669 15.7126 6.28833 15.0171L4.64047 16.1505C5.49317 17.3902 6.65309 17.8971 7.70906 18.0169C8.72394 18.132 9.65209 17.8946 10.191 17.6405L9.33809 15.8315ZM6.28833 15.0171C6.05068 14.6716 5.98466 14.4005 5.97954 14.1998C5.97431 13.9947 6.03118 13.7912 6.14812 13.5846C6.39976 13.1402 6.87385 12.7856 7.18258 12.6385L6.32218 10.833C5.74742 11.1069 4.912 11.7086 4.40775 12.5992C4.14675 13.0601 3.96408 13.6187 3.98019 14.2508C3.99641 14.8873 4.2126 15.5284 4.64047 16.1505L6.28833 15.0171Z" fill="#948254"/>
</svg>
